<svg width="394" height="294" viewBox="0 0 394 294" fill="none" xmlns="http://www.w3.org/2000/svg">
<path d="M38.9616 120.61C40.2854 116.873 41.0641 112.784 41.2977 108.346C41.9985 94.9522 42.1932 80.702 41.8817 65.5952C41.5703 53.9147 40.4411 46.4003 38.4944 43.0519C42.6994 42.6625 47.4105 41.8449 52.6278 40.599C57.9229 39.2752 62.0111 37.9125 64.8923 36.5108C63.3349 40.56 62.4394 49.8266 62.2058 64.3104C62.0501 77.2368 62.3226 91.7985 63.0234 107.995C63.257 114.459 66.7612 117.535 73.5359 117.223C78.9089 116.989 82.8024 114.731 85.2164 110.448C87.6303 106.165 87.5525 101.922 84.9828 97.7166C81.5565 92.11 75.0154 88.9562 65.3595 88.2554V86.3865C70.5768 84.3619 74.9765 81.7143 78.5585 78.4438C82.1405 75.0954 84.6713 71.6302 86.1508 68.0481C87.6303 64.3883 88.2922 60.6116 88.1365 56.7181C88.0586 52.8246 87.1631 49.2815 85.45 46.0888C83.7368 42.8183 81.2061 40.015 77.8577 37.6789C74.5092 35.3428 70.5768 33.8243 66.0604 33.1235C62.2447 32.5005 58.2734 32.6173 54.1463 33.4739C50.097 34.2526 46.2035 35.81 42.4658 38.1461C38.8059 40.4043 35.5743 43.1687 32.7709 46.4392C29.9676 49.7098 27.8262 53.7201 26.3467 58.4701C24.8671 63.1423 24.361 68.165 24.8282 73.538C25.2954 78.3659 26.6192 82.7266 28.7996 86.6201C31.0578 90.4358 34.0947 93.317 37.9104 95.2637V95.3805C30.357 97.5609 23.8938 97.9502 18.5207 96.5486C13.1477 95.1469 8.94274 92.4993 5.90581 88.6058C2.94675 84.6345 1.38935 79.9623 1.23361 74.5892C1.07787 68.2818 2.28485 62.4026 4.85456 56.9517C7.50214 51.4229 11.1231 46.7507 15.7174 42.9351C20.3118 39.0416 25.6458 35.771 31.7197 33.1235C37.7936 30.4759 44.2957 28.6459 51.2261 27.6336C58.2344 26.6213 65.2817 26.4656 72.3678 27.1664C77.8966 27.6336 82.9192 28.6459 87.4357 30.2033C91.9521 31.6829 95.6899 33.5128 98.6489 35.6932C101.686 37.8735 104.256 40.3264 106.358 43.0519C108.538 45.7773 109.94 48.6585 110.563 51.6955C111.264 54.6545 111.536 57.6525 111.381 60.6894C111.303 63.6485 110.524 66.5297 109.045 69.333C107.565 72.1363 105.696 74.706 103.438 77.0421C101.258 79.3782 98.4543 81.4029 95.028 83.116C91.6017 84.8291 87.825 86.075 83.6979 86.8537C93.9767 87.9439 101.374 91.2923 105.891 96.899C109.473 101.493 110.018 106.088 107.526 110.682C104.489 116.366 97.9092 119.871 87.7861 121.194C80.6999 122.129 72.4846 121.778 63.1402 120.143C54.1073 118.586 46.0478 118.741 38.9616 120.61ZM167.342 99.0015C167.108 100.948 166.602 102.817 165.824 104.608C165.123 106.321 164.227 107.918 163.137 109.397C162.047 110.877 160.762 112.239 159.283 113.485C157.881 114.731 156.285 115.821 154.494 116.756C152.78 117.69 150.95 118.43 149.004 118.975C141.217 121.078 133.936 120.065 127.161 115.938C123.268 113.602 120.153 110.565 117.817 106.827C115.559 103.012 114.157 99.0793 113.612 95.0301C113.145 90.9809 113.417 86.8927 114.429 82.7656C115.442 78.5606 117.077 74.8228 119.335 71.5523C121.671 68.2039 124.747 65.5174 128.563 63.4928C132.378 61.3903 136.545 60.339 141.061 60.339C148.069 60.339 154.104 62.8309 159.166 67.8145C164.227 72.7982 167.07 78.9889 167.693 86.3865H129.147C131.094 90.2022 133.819 93.4338 137.323 96.0813C140.905 98.651 145.266 100.364 150.405 101.221C155.545 102.077 161.19 101.338 167.342 99.0015ZM127.745 67.8145C126.266 68.126 125.448 69.6445 125.292 72.3699C125.137 75.0175 125.837 78.3659 127.395 82.4152H143.163C141.684 78.1323 139.309 74.5114 136.038 71.5523C132.768 68.5932 130.003 67.3473 127.745 67.8145ZM169.263 61.1567C173.468 60.378 177.907 59.0931 182.579 57.3021C187.329 55.4332 190.872 53.5643 193.208 51.6955V61.1567H203.487V65.128C202.319 65.128 200.567 65.128 198.231 65.128C195.895 65.128 194.181 65.128 193.091 65.128C193.169 86.3865 193.247 99.0793 193.325 103.206C193.325 107.334 193.675 110.448 194.376 112.551C195.155 114.653 196.401 115.549 198.114 115.237C200.45 114.459 201.345 111.85 200.8 107.411C200.255 102.895 198.698 99.1183 196.128 96.0813C200.645 93.8231 204.071 94.3682 206.407 97.7166C208.587 100.831 208.938 104.569 207.458 108.93C205.745 114.147 202.046 117.496 196.362 118.975C194.571 119.442 192.663 119.715 190.638 119.793C178.568 119.793 172.534 113.096 172.534 99.7023C172.534 97.5998 172.534 94.7965 172.534 91.2923C172.611 87.7103 172.611 85.1795 172.534 83.7C172.534 82.2205 172.495 80.2348 172.417 77.743C172.417 75.2511 172.339 73.4212 172.183 72.2531C172.105 71.0851 171.95 69.7224 171.716 68.165C171.482 66.6076 171.171 65.3227 170.781 64.3104C170.392 63.2202 169.886 62.169 169.263 61.1567Z" fill="white"/>
<path d="M63.6075 153.481C62.9845 158.465 62.4394 167.576 61.9722 180.814C61.5828 194.051 61.505 205.81 61.7386 216.089C61.8164 218.347 61.8554 220.06 61.8554 221.228C61.9332 222.396 62.0501 223.953 62.2058 225.9C62.4394 227.769 62.673 229.21 62.9066 230.222C63.2181 231.234 63.6464 232.48 64.1915 233.96C64.7366 235.361 65.3595 236.413 66.0604 237.114C66.7612 237.814 67.6567 238.554 68.7469 239.333C69.8371 240.112 71.083 240.618 72.4846 240.851C73.8863 241.007 75.5216 241.085 77.3904 241.085C79.2593 241.007 81.3618 240.734 83.6979 240.267C86.1897 239.8 88.3312 238.827 90.1222 237.347C91.9911 235.79 92.7698 234.038 92.4583 232.091C91.9132 229.054 89.9275 227.068 86.5012 226.134C83.1528 225.199 79.9991 225.706 77.04 227.652C74.081 229.599 72.874 232.597 73.4191 236.646C70.0707 236.413 67.7735 234.622 66.5276 231.273C65.1259 227.691 65.6321 224.343 68.046 221.228C70.5379 218.113 74.4314 216.517 79.7265 216.439C82.6856 216.439 85.45 217.218 88.0197 218.775C90.6673 220.333 92.8087 222.279 94.444 224.615C96.0792 226.951 97.3641 229.521 98.2985 232.325C98.8436 234.505 99.1162 236.763 99.1162 239.099C99.194 241.357 98.8047 243.616 97.9481 245.874C97.0915 248.132 95.9624 250.157 94.5608 251.948C93.1591 253.661 91.2902 255.063 88.9541 256.153C86.6959 257.165 84.2041 257.671 81.4786 257.671C78.9089 257.593 76.2613 256.854 73.5359 255.452C70.8104 254.05 68.4354 252.493 66.4108 250.78C64.464 248.989 62.089 247.081 59.2857 245.056C56.4824 242.954 53.8737 241.396 51.4597 240.384C45.5416 237.97 40.7137 237.464 36.9759 238.866C38.2997 235.206 39.1174 231.195 39.4288 226.835C39.6624 222.63 39.935 207.912 40.2465 182.682C40.3243 173.182 39.7792 165.512 38.6112 159.672C33.7054 163.332 29.9287 167.965 27.2811 173.572C24.6335 179.178 23.6212 185.408 24.2442 192.26C24.6335 197.088 25.9184 201.41 28.0987 205.226C30.357 209.041 33.4328 211.923 37.3263 213.869C29.773 216.128 23.3097 216.556 17.9367 215.154C12.5637 213.675 8.35871 211.027 5.32178 207.211C2.36272 203.318 0.805325 198.685 0.649585 193.312C0.260235 179.918 5.63326 169.795 16.7687 162.942C27.9819 156.09 43.5949 152.936 63.6075 153.481ZM93.8973 197.867C95.8441 190.158 100.088 184.551 106.629 181.047C113.17 177.543 120.101 177.154 127.42 179.879C134.818 182.605 140.425 187.627 144.24 194.947C148.056 202.267 148.99 209.781 147.044 217.49C145.097 225.122 140.853 230.689 134.312 234.193C127.771 237.698 120.801 238.087 113.404 235.361C106.084 232.636 100.516 227.613 96.7007 220.294C92.885 212.974 91.9506 205.498 93.8973 197.867ZM126.252 204.525C122.982 198.062 119.594 192.961 116.09 189.223C112.664 185.486 110.133 184.045 108.498 184.902C106.863 185.758 106.629 188.678 107.797 193.662C108.965 198.568 111.223 204.252 114.572 210.716C117.92 217.101 121.308 222.201 124.734 226.017C128.238 229.755 130.808 231.195 132.443 230.339C134 229.482 134.195 226.562 133.027 221.578C131.937 216.595 129.679 210.91 126.252 204.525ZM208.749 179.178C207.036 183.539 206.063 192.689 205.829 206.627C205.674 220.566 206.647 230.572 208.749 236.646H183.286C185.466 231.585 186.595 223.564 186.673 212.584L186.557 212.935C185.077 218.853 183.403 223.759 181.534 227.652C179.665 231.468 177.251 234.232 174.292 235.945C172.501 237.036 170.437 237.698 168.101 237.931C165.765 238.087 163.39 237.581 160.976 236.413C158.64 235.167 156.888 233.22 155.72 230.572C154.396 227.691 153.618 223.525 153.384 218.074C153.15 212.623 152.878 206.822 152.566 200.67C152.255 194.519 151.359 189.418 149.88 185.369C158.835 184.279 166.505 182.215 172.89 179.178V204.642C172.89 217.958 174.253 224.576 176.979 224.499C178.77 224.343 180.288 222.863 181.534 220.06C182.858 217.179 184.104 213.246 185.272 208.263C185.661 206.705 186.011 205.109 186.323 203.474C185.778 194.285 184.766 188.25 183.286 185.369C187.335 184.98 191.891 184.162 196.952 182.916C202.014 181.67 205.946 180.424 208.749 179.178ZM284.251 208.964C281.292 206.394 279.151 203.474 277.827 200.203C276.581 196.933 276.23 193.779 276.776 190.742C277.321 187.627 279.073 184.746 282.032 182.098C284.991 179.373 288.923 177.426 293.829 176.258C303.018 174.078 311.35 175.285 318.825 179.879C321.551 175.83 324.899 173.143 328.871 171.82C332.92 170.496 336.541 171.236 339.733 174.039C341.291 175.674 342.07 177.504 342.07 179.529C342.07 181.475 341.408 183.15 340.084 184.551C338.838 185.875 337.203 186.848 335.178 187.471C333.231 188.017 331.051 187.666 328.637 186.42C329.571 184.629 329.727 183.111 329.104 181.865C328.559 180.541 327.625 179.879 326.301 179.879C324.977 179.801 323.731 180.191 322.563 181.047C322.252 181.281 321.979 181.553 321.745 181.865C324.393 183.967 326.534 186.381 328.17 189.107C329.805 191.832 330.701 194.635 330.856 197.517C331.09 200.32 330.623 202.968 329.455 205.459C328.364 207.951 326.223 210.132 323.03 212C319.916 213.869 315.983 215.115 311.233 215.738C304.848 216.595 299.007 216.089 293.712 214.22C293.323 214.064 292.895 213.908 292.427 213.753C291.182 214.298 290.403 215.154 290.091 216.322C289.858 217.49 290.13 218.308 290.909 218.775C292.077 219.71 293.79 220.255 296.048 220.41C298.384 220.566 300.915 220.488 303.641 220.177C306.366 219.865 309.169 219.632 312.051 219.476C314.932 219.242 317.93 219.359 321.045 219.826C324.159 220.216 326.846 221.111 329.104 222.513C331.985 224.148 334.088 226.29 335.412 228.937C336.735 231.507 337.203 234.193 336.813 236.997C336.424 239.722 335.178 242.175 333.076 244.355C331.051 246.536 328.403 248.327 325.133 249.728C321.862 251.052 318.28 252.142 314.387 252.999C310.493 253.778 306.288 254.323 301.772 254.634C296.165 255.024 291.143 254.946 286.704 254.401C282.265 253.778 278.489 252.999 275.374 252.065C272.337 251.13 269.534 249.456 266.964 247.042C264.472 244.628 262.486 242.487 261.007 240.618C259.527 238.749 258.048 235.868 256.568 231.974C255.167 228.081 254.115 224.927 253.415 222.513C252.792 220.099 251.857 216.439 250.611 211.533C249.521 207.328 248.703 204.136 248.158 201.955C246.212 194.869 244.498 191.326 243.019 191.326C241.384 191.326 239.982 192.728 238.814 195.531C237.724 198.256 236.556 202.384 235.31 207.912C234.998 209.158 234.687 210.482 234.375 211.884C234.609 224.966 235.582 233.22 237.295 236.646H211.832C212.689 235.478 213.428 231.779 214.051 225.55C214.752 219.242 215.025 213.091 214.869 207.095C214.635 202.111 214.168 197.478 213.467 193.195C212.844 188.834 212.105 185.875 211.248 184.318C219.346 183.539 227.133 181.826 234.609 179.178V200.086C234.687 199.775 234.843 199.308 235.076 198.685C235.855 195.648 236.517 193.234 237.062 191.443C237.685 189.652 238.697 187.588 240.099 185.252C241.5 182.838 243.097 181.086 244.888 179.996C248.392 178.127 251.74 177.777 254.933 178.945C258.204 180.035 260.929 182.332 263.109 185.836C263.888 187.238 264.667 188.912 265.445 190.859C266.302 192.728 267.12 194.986 267.898 197.633C268.677 200.203 269.3 202.345 269.767 204.058C270.234 205.693 270.857 208.068 271.636 211.183C272.493 214.298 272.999 216.244 273.155 217.023C274.634 222.318 276.23 226.951 277.944 230.923C279.657 234.816 281.331 237.931 282.966 240.267C284.679 242.525 286.548 244.355 288.573 245.757C290.597 247.159 292.427 248.132 294.063 248.677C295.698 249.222 297.567 249.573 299.669 249.728C305.12 250.274 309.559 249.222 312.985 246.575C315.866 244.316 316.45 242.136 314.737 240.034C314.036 239.177 313.141 238.476 312.051 237.931C310.493 237.152 308.469 236.452 305.977 235.829C303.485 235.206 301.032 234.661 298.618 234.193C296.204 233.726 293.79 233.22 291.376 232.675C289.04 232.052 286.938 231.234 285.069 230.222C283.278 229.132 282.032 227.847 281.331 226.367C280.786 225.199 280.474 223.953 280.397 222.63C280.397 221.306 280.63 220.021 281.097 218.775C281.642 217.451 282.538 216.205 283.784 215.037C285.108 213.791 286.704 212.74 288.573 211.884C287.015 211.027 285.575 210.054 284.251 208.964ZM309.715 194.713C307.534 190.586 304.964 187.043 302.005 184.084C299.124 181.047 296.671 179.801 294.647 180.346C292.934 180.814 292.272 182.838 292.661 186.42C293.05 190.002 294.296 193.818 296.399 197.867C299.124 203.006 301.889 206.744 304.692 209.08C307.495 211.416 309.754 212.195 311.467 211.416C312.479 211.027 313.141 210.132 313.452 208.73C313.764 207.328 313.608 205.42 312.985 203.006C312.362 200.515 311.272 197.75 309.715 194.713ZM392.169 217.023C391.935 218.97 391.429 220.839 390.65 222.63C389.95 224.343 389.054 225.939 387.964 227.419C386.874 228.898 385.589 230.261 384.109 231.507C382.708 232.753 381.111 233.843 379.32 234.777C377.607 235.712 375.777 236.452 373.83 236.997C366.043 239.099 358.763 238.087 351.988 233.96C348.094 231.624 344.98 228.587 342.644 224.849C340.385 221.033 338.984 217.101 338.439 213.052C337.971 209.002 338.244 204.914 339.256 200.787C340.268 196.582 341.904 192.844 344.162 189.574C346.498 186.225 349.574 183.539 353.39 181.514C357.205 179.412 361.371 178.361 365.888 178.361C372.896 178.361 378.931 180.852 383.992 185.836C389.054 190.82 391.896 197.01 392.519 204.408H353.974C355.92 208.224 358.646 211.455 362.15 214.103C365.732 216.673 370.093 218.386 375.232 219.242C380.372 220.099 386.017 219.359 392.169 217.023ZM352.572 185.836C351.092 186.148 350.275 187.666 350.119 190.392C349.963 193.039 350.664 196.388 352.222 200.437H367.99C366.511 196.154 364.136 192.533 360.865 189.574C357.595 186.615 354.83 185.369 352.572 185.836Z" fill="url(#paint0_linear_45_15)"/>
<defs>
<linearGradient id="paint0_linear_45_15" x1="67.9239" y1="118.022" x2="328.911" y2="227.618" gradientUnits="userSpaceOnUse">
<stop stop-color="white"/>
<stop offset="0.505" stop-color="#7E5E2C"/>
<stop offset="1" stop-color="#E8BC4D"/>
</linearGradient>
</defs>
</svg>
