<svg width="1920" height="232" viewBox="0 0 1920 232" fill="none" xmlns="http://www.w3.org/2000/svg">
<g clip-path="url(#clip0_270_37)">
<mask id="mask0_270_37" style="mask-type:alpha" maskUnits="userSpaceOnUse" x="0" y="0" width="1920" height="232">
<rect width="1920" height="232" fill="#443B30"/>
</mask>
<g mask="url(#mask0_270_37)">
<rect width="1920" height="232" fill="#443B30"/>
<g style="mix-blend-mode:overlay" opacity="0.18">
<path d="M958.56 678.924C938.677 679.287 917.904 678.367 897.243 675.915C883.673 674.302 870.191 671.816 856.71 669.465C834.082 665.514 811.92 659.485 790.114 652.275C738.222 635.118 689.887 610.535 645.13 578.629C611.321 554.535 580.513 526.955 552.75 495.855C529.232 469.501 508.193 441.182 489.966 410.741C469.505 376.564 452.678 340.638 439.708 302.805C430.05 274.657 422.692 245.93 417.424 216.613C414.857 202.317 412.945 187.931 411.478 173.511C409.944 158.353 408.822 143.138 408.844 127.866C408.866 115.342 408.899 102.806 409.222 90.2935C409.4 83.231 410.089 76.1685 410.722 69.1173C411.4 61.5325 412.3 53.9704 413.067 46.3856C414.401 33.1916 416.668 20.1566 419.158 7.1557C428.038 -39.2162 442.609 -83.6692 462.581 -126.249C471.328 -144.904 481.23 -162.946 491.855 -180.591C508.682 -208.501 527.987 -234.503 549.349 -258.904C572.266 -285.076 597.351 -308.909 624.702 -330.233C639.973 -342.144 655.711 -353.328 672.06 -363.615C688.109 -373.709 704.646 -382.872 721.64 -391.195C743.624 -401.959 766.219 -411.145 789.347 -418.923C815.376 -427.689 842.028 -433.843 869.013 -438.68C887.429 -441.984 905.968 -443.642 924.595 -444.868C944.834 -446.197 965.084 -446.31 985.323 -445.447C1003.25 -444.686 1021.15 -443.267 1038.93 -440.644C1049.3 -439.111 1059.56 -436.886 1069.85 -434.808C1078.38 -433.082 1086.93 -431.322 1095.37 -429.199C1102.44 -427.427 1109.35 -425.02 1116.37 -423.067C1129.43 -419.457 1142.05 -414.563 1154.74 -409.839C1174.3 -402.561 1193.15 -393.636 1211.67 -383.985C1220.21 -379.545 1228.69 -374.936 1236.95 -369.974C1253.33 -360.129 1269.33 -349.649 1284.6 -338.067C1296.3 -329.199 1307.74 -320.025 1318.82 -310.34C1336.67 -294.727 1353.47 -278.025 1369.19 -260.232C1388.14 -238.783 1405.59 -216.097 1421.04 -191.855C1425.3 -185.167 1429.22 -178.264 1433.23 -171.406C1436.88 -165.183 1440.65 -159.018 1443.99 -152.625C1450.27 -140.623 1456.53 -128.61 1461.97 -116.177C1474.63 -87.3026 1485.11 -57.656 1493.06 -27.0555C1498.17 -7.38948 1502.16 12.5037 1505.13 32.6012C1506.78 43.7059 1507.72 54.9355 1508.92 66.1084C1510.99 85.2635 1511.28 104.498 1511.12 123.755C1511.01 137.733 1510.3 151.676 1509.1 165.619C1507.98 178.643 1506.51 191.621 1504.49 204.509C1502.02 220.269 1499.12 235.949 1495.21 251.426C1491.97 264.256 1488.67 277.064 1484.6 289.645C1475.01 319.337 1463.54 348.246 1449.18 375.883C1444.27 385.33 1438.75 394.436 1433.68 403.803C1425.06 419.734 1414.85 434.574 1404.41 449.267C1395.96 461.178 1386.69 472.419 1377.41 483.66C1366.28 497.138 1354.2 509.684 1341.9 522.015C1334.28 529.646 1326.18 536.708 1318.19 543.918C1307.51 553.536 1296.1 562.176 1284.8 570.976C1278.04 576.256 1270.98 581.172 1263.83 585.93C1239.98 601.804 1215.29 616.11 1189.36 628.203C1174 635.368 1158.34 641.703 1142.48 647.63C1124.58 654.318 1106.28 659.473 1087.81 664.072C1076.59 666.865 1065.2 668.875 1053.85 671.078C1022.67 677.13 991.157 679.276 958.515 678.946L958.56 678.924ZM1468.58 121.382C1468.28 110.618 1468.06 100.819 1467.72 91.0202C1467.5 84.4914 1467.39 77.9398 1466.7 71.4564C1465.41 59.3752 1464.5 47.2372 1462.19 35.2808C1460.08 24.4259 1458.91 13.4007 1456.17 2.64794C1452.02 -13.6799 1448.7 -30.2461 1442.78 -46.0743C1442.59 -46.5853 1442.47 -47.119 1442.3 -47.6299C1437.18 -64.0826 1431.19 -80.1833 1424.24 -95.9207C1422.42 -100.054 1421.02 -104.369 1418.61 -108.218C1418.14 -108.967 1418.04 -109.944 1417.65 -110.75C1416.41 -113.339 1415.14 -115.927 1413.81 -118.471C1412.96 -120.06 1411.89 -121.537 1411.05 -123.126C1408.24 -128.383 1405.58 -133.731 1402.68 -138.932C1399.25 -145.074 1395.85 -151.263 1391.99 -157.144C1388.04 -163.162 1385.89 -170.304 1380.73 -175.527C1380.49 -175.777 1380.34 -176.129 1380.16 -176.447C1374.29 -186.439 1367.08 -195.432 1359.88 -204.413C1353.8 -211.998 1347.49 -219.378 1341.37 -226.918C1336.05 -233.492 1330.66 -239.976 1324.6 -245.88C1316.76 -253.522 1309.18 -261.436 1301.41 -269.168C1299.12 -271.439 1296.65 -273.528 1294.2 -275.617C1288.33 -280.613 1282.46 -285.598 1276.52 -290.492C1272.8 -293.569 1268.96 -296.487 1265.14 -299.451C1263.16 -300.983 1261 -302.301 1259.17 -303.992C1256.39 -306.57 1253.33 -308.693 1250.11 -310.646C1246.75 -312.69 1243.49 -314.893 1240.24 -317.107C1236.4 -319.718 1232.69 -322.534 1228.8 -325.032C1224.89 -327.542 1220.8 -329.733 1216.82 -332.129C1211.93 -335.07 1207.17 -338.272 1202.17 -340.997C1195.75 -344.494 1189.17 -347.662 1182.61 -350.887C1177.17 -353.555 1171.67 -356.11 1166.19 -358.699C1163.62 -359.913 1161.03 -361.117 1158.43 -362.298C1155.01 -363.842 1151.65 -365.489 1148.16 -366.828C1142.34 -369.065 1136.44 -371.064 1130.6 -373.21C1126.75 -374.618 1122.98 -376.275 1119.09 -377.524C1113.5 -379.318 1107.79 -380.681 1102.21 -382.52C1090.37 -386.426 1078.49 -390.105 1066.17 -392.16C1055.13 -394 1044.19 -396.486 1033.15 -398.269C1014.7 -401.244 996.114 -402.822 977.443 -403.163C960.382 -403.481 943.322 -403.731 926.307 -402.232C916.048 -401.323 905.79 -400.347 895.554 -399.211C881.761 -397.679 868.235 -394.477 854.632 -391.82C851.142 -391.138 847.596 -390.639 844.184 -389.674C831.347 -386.029 818.488 -382.475 805.774 -378.41C796.116 -375.333 786.569 -371.836 777.177 -367.987C765.974 -363.399 754.827 -358.574 743.946 -353.237C729.853 -346.333 715.961 -339.032 702.568 -330.732C689.954 -322.909 677.561 -314.757 665.525 -306.048C654.366 -297.975 643.674 -289.243 633.205 -280.227C617.567 -266.738 602.697 -252.409 588.837 -237.057C565.764 -211.521 544.948 -184.202 527.343 -154.374C514.295 -132.267 502.436 -109.558 492.611 -85.7584C478.418 -51.3542 467.86 -15.8259 461.158 20.8719C458.291 36.5752 455.99 52.3808 454.623 68.2885C453.567 80.5741 452.934 92.9164 452.656 105.259C452.411 116.136 452.9 127.037 453.123 137.914C453.345 148.985 454.101 160.022 455.29 171.047C457.313 189.816 460.191 208.437 464.059 226.9C469.938 255.002 478.274 282.355 488.654 309.038C502.758 345.282 520.997 379.278 542.591 411.422C557.206 433.178 573.5 453.57 591.216 472.714C616.934 500.51 645.141 525.388 676.305 546.666C685.752 553.115 695.277 559.485 705.091 565.333C717.205 572.566 729.475 579.571 742.246 585.51C754.849 591.38 767.508 597.171 780.411 602.292C794.137 607.742 808.086 612.67 822.289 616.792C833.059 619.914 843.762 623.252 854.809 625.251C865.123 627.113 875.426 629.134 885.762 630.871C901.378 633.494 917.104 635.379 932.908 635.947C959.549 636.901 986.201 637.162 1012.76 634.028C1020 633.176 1027.25 632.381 1034.44 631.235C1043.91 629.724 1053.34 627.976 1062.77 626.148C1070.09 624.728 1077.49 623.491 1084.64 621.356C1097.59 617.496 1110.62 613.874 1123.29 609.093C1131.45 606.005 1139.79 603.382 1147.89 600.146C1159.64 595.456 1171.1 590.063 1182.38 584.261C1185.54 582.626 1188.87 581.309 1192.03 579.685C1194.4 578.47 1196.65 577.005 1198.92 575.62C1199.99 574.973 1201.01 574.246 1202.07 573.588C1208.73 569.455 1216.34 567.047 1222.33 561.734C1222.46 561.62 1222.64 561.552 1222.8 561.472C1231.96 556.965 1240.05 550.663 1248.51 545.054C1257.57 539.036 1266 531.985 1274.58 525.229C1280.34 520.698 1285.9 515.907 1291.55 511.217C1292.24 510.65 1292.91 510.048 1293.55 509.423C1300.66 502.599 1308.14 496.161 1314.85 488.871C1322.26 480.81 1330.42 473.486 1337.35 464.925C1344.36 456.261 1351.8 447.95 1358.81 439.275C1364.24 432.553 1369.37 425.593 1374.46 418.598C1377.52 414.386 1379.86 409.64 1383.25 405.643C1383.6 405.245 1383.85 404.723 1384.03 404.223C1385.16 401.101 1387.12 398.524 1389.2 396.026C1389.89 395.197 1390.62 394.322 1390.98 393.335C1392.22 389.86 1394.29 386.965 1396.53 384.115C1397.63 382.729 1398.39 381.026 1399.13 379.38C1401.61 373.964 1405.54 369.365 1407.55 363.677C1407.84 362.859 1408.59 362.212 1409.05 361.44C1409.69 360.361 1410.43 359.294 1410.84 358.113C1411.97 354.843 1413.48 351.788 1415.43 348.938C1416.23 347.769 1416.66 346.338 1417.24 345.01C1418.04 343.193 1418.82 341.365 1419.61 339.537C1423.94 329.386 1428.5 319.337 1432.52 309.061C1435.96 300.307 1438.8 291.314 1441.86 282.412C1445.45 271.966 1448.99 261.497 1451.45 250.688C1453.02 243.795 1454.59 236.903 1456.16 230C1457.16 225.583 1458.26 221.189 1459.11 216.738C1460 212.105 1460.52 207.404 1461.4 202.783C1463.77 190.293 1465.29 177.667 1466.36 165.029C1467.62 150.211 1467.93 135.314 1468.61 121.394L1468.58 121.382Z" fill="white"/>
<path d="M961.75 -322.614C975.064 -322.432 986.378 -317.538 995.692 -307.921C1005.82 -297.475 1015.78 -286.858 1025.9 -276.401C1042.65 -259.108 1059.36 -241.781 1076.28 -224.658C1116.17 -184.282 1155.98 -143.837 1196.17 -103.778C1219.05 -80.9668 1242.6 -58.8368 1265.85 -36.4116C1302.93 -0.656217 1340.03 35.0878 1377.11 70.8546C1379.56 73.2163 1382.01 75.6008 1384.35 78.0761C1404.55 99.4339 1403.96 132.714 1384 153.209C1374.35 163.121 1364.69 173.023 1355.01 182.901C1312.01 226.775 1269 270.626 1226.01 314.523C1197.48 343.658 1169.01 372.828 1140.51 401.998C1127.45 415.362 1114.45 428.772 1101.37 442.102C1083.13 460.69 1064.72 479.118 1046.58 497.808C1031.7 513.147 1017.1 528.771 1002.35 544.259C999.993 546.734 997.659 549.221 995.203 551.594C976.287 569.886 946.112 569.784 927.185 551.106C922.072 546.064 917.082 540.887 912.069 535.743C891.497 514.658 870.936 493.561 850.353 472.487C826.135 447.689 801.873 422.924 777.666 398.103C744.935 364.539 712.237 330.941 679.517 297.355C656.578 273.805 633.638 250.256 610.71 226.707C588.404 203.805 566.087 180.891 543.792 157.978C540.913 155.014 538.057 152.028 535.212 149.031C517.44 130.193 517.451 100.433 535.412 81.6527C542.98 73.7386 550.827 66.0857 558.696 58.4668C591.182 26.992 623.591 -4.5622 656.267 -35.8439C711.371 -88.6084 765.407 -142.486 818.644 -197.214C845.574 -224.897 872.681 -252.397 899.711 -279.989C908.757 -289.232 917.793 -298.485 926.84 -307.728C933.942 -314.972 942.333 -319.809 952.258 -321.626C955.381 -322.194 958.593 -322.296 961.761 -322.614H961.75ZM1020.79 128.467C1021.68 127.468 1022.53 126.344 1023.53 125.379C1027.78 121.246 1032.05 117.147 1036.34 113.059C1054.06 96.2319 1072.45 80.2789 1093.24 67.4369C1093.54 67.2552 1093.83 67.0281 1094.14 66.8578C1095.32 66.1652 1095.91 65.1092 1095.95 63.7353C1096 62.4636 1096.03 61.1919 1096.04 59.9202C1096.06 48.8495 1096.1 37.7788 1096.09 26.6968C1096.09 24.5168 1096.02 22.3367 1095.84 20.168C1094.42 3.10214 1080.65 -9.94422 1063.81 -10.1145C1053.86 -10.2167 1043.92 -10.2054 1033.97 -10.2054C1032.58 -10.2054 1031.2 -9.97832 1029.98 -9.87613C1029.55 -9.10402 1029.25 -8.64983 1029.01 -8.17294C1020.88 9.09729 1010.31 24.7438 998.593 39.641C987.012 54.3791 974.231 68.016 961.794 81.9707C961.216 82.6179 960.505 83.1515 959.693 83.8896C958.749 83.072 957.882 82.4703 957.204 81.6982C947.246 70.3436 937.054 59.1935 927.451 47.5324C913.57 30.6822 901.533 12.515 892.286 -7.46897C891.92 -8.26379 891.442 -9.01315 891.142 -9.56953C890.497 -9.79662 890.163 -10.001 889.83 -10.001C881.128 -10.16 872.425 -10.4211 863.723 -10.4097C858.666 -10.4097 853.887 -8.94502 849.575 -6.17452C839.016 0.59278 833.192 10.2555 833.004 23.0861C832.826 34.8835 832.959 46.6808 832.948 58.4782C832.948 61.0102 832.948 63.5423 832.948 66.3809C846.874 74.8628 859.933 84.5595 872.348 95.1532C891.219 111.243 905.879 125.197 908.124 129.24C904.223 132.873 900.322 136.563 896.365 140.197C892.408 143.842 888.43 147.475 884.395 151.029C880.361 154.583 876.282 158.091 872.125 161.498C867.969 164.904 863.767 168.265 859.477 171.478C855.187 174.703 850.797 177.791 846.363 180.812C841.939 183.809 837.405 186.637 832.97 189.509C832.97 201.977 832.915 214.137 833.015 226.287C833.037 228.614 833.515 230.976 834.093 233.247C837.738 247.508 851.464 258.942 865.746 258.488C874.804 258.193 883.862 258.25 892.92 258.113C893.609 258.113 894.298 257.932 895.209 257.796C897.677 253.424 900.066 248.984 902.656 244.681C905.345 240.196 908.146 235.779 911.058 231.442C913.87 227.252 916.793 223.142 919.805 219.099C922.817 215.057 925.962 211.117 929.141 207.211C932.319 203.305 935.554 199.433 938.843 195.63C942.255 191.69 945.679 187.749 949.268 183.98C952.658 180.414 955.503 176.236 959.838 173.17C964.839 178.734 969.663 184.048 974.431 189.407C979.21 194.778 984.033 200.115 988.679 205.61C993.203 210.969 997.67 216.397 1001.89 221.995C1006.23 227.74 1010.42 233.61 1014.37 239.64C1018.32 245.635 1021.9 251.88 1025.48 257.761C1026.01 257.943 1026.18 258.045 1026.34 258.045C1038.96 258.045 1051.57 258.295 1064.17 257.954C1073.01 257.716 1080.7 254.083 1086.89 247.463C1092.96 240.968 1095.77 233.122 1095.84 224.232C1095.91 214.069 1095.87 203.896 1095.84 193.733C1095.84 192.484 1095.59 191.235 1095.43 189.805C1081.59 181.527 1068.68 171.933 1056.29 161.611C1043.43 150.904 1024.16 133.032 1020.77 128.456L1020.79 128.467ZM962.605 -254.123C961.172 -252.761 959.86 -251.569 958.615 -250.297C952.191 -243.768 945.79 -237.216 939.388 -230.665C890.564 -180.694 841.739 -130.734 792.937 -80.7397C792.237 -80.0244 791.803 -79.0593 791.203 -78.1509C792.115 -77.1403 792.793 -76.3001 793.559 -75.5507C804.507 -64.6617 815.454 -53.7954 826.413 -42.9178C826.524 -42.8042 826.724 -42.7702 826.891 -42.7134C827.057 -42.6566 827.235 -42.6339 827.48 -42.5885C827.913 -42.7702 828.424 -42.9291 828.88 -43.1903C840.828 -49.9576 853.776 -52.5805 867.28 -52.9552C870.48 -53.046 873.67 -53.0233 876.871 -53.1709C877.86 -53.2163 878.838 -53.6251 880.127 -53.943C880.127 -55.7825 880.127 -57.3948 880.127 -59.0072C880.161 -73.8816 884.073 -87.6773 891.408 -100.474C898.232 -112.362 907.179 -122.354 917.704 -130.915C923.439 -135.582 929.685 -139.352 936.498 -142.1C944.845 -145.483 953.514 -147.334 962.505 -146.641C974.209 -145.744 985.223 -142.304 995.092 -135.741C1012.01 -124.489 1024.91 -109.546 1033.51 -90.8566C1038.19 -80.7057 1040.33 -69.9189 1040.85 -58.746C1040.93 -57.0201 1040.34 -55.1126 1041.92 -53.2845C1047.57 -53.2845 1053.42 -53.2277 1059.26 -53.2959C1071.93 -53.4548 1083.92 -50.5821 1095.29 -44.9275C1096.41 -44.3711 1097.51 -43.7921 1098.65 -43.3039C1099.72 -42.8497 1100.74 -43.0427 1101.64 -43.8034C1102.19 -44.269 1102.73 -44.7345 1103.24 -45.2454C1113.15 -55.1466 1123.05 -65.0478 1132.92 -74.983C1133.75 -75.8232 1134.33 -76.9246 1134.97 -77.833C1126.91 -88.7447 972.741 -246.504 962.616 -254.112L962.605 -254.123ZM1133.02 321.619C1132.36 320.677 1132.03 320.03 1131.54 319.541C1122.59 310.458 1113.65 301.374 1104.64 292.336C1103.67 291.348 1102.41 290.656 1101.5 289.974C1100.77 290.167 1100.4 290.213 1100.08 290.372C1098.95 290.917 1097.84 291.484 1096.73 292.052C1085.59 297.729 1073.9 301.034 1061.35 300.875C1055.5 300.795 1049.63 300.852 1043.76 300.909C1042.59 300.92 1041.42 301.261 1039.93 301.499C1040.08 303.77 1040.19 305.734 1040.37 307.71C1040.98 314.625 1040.48 321.494 1039.33 328.307C1037 341.989 1031.4 354.207 1023.34 365.3C1015.88 375.576 1007.18 384.592 996.692 391.699C987.034 398.251 976.409 402.236 964.939 403.554C952.203 405.007 940.166 402.146 929.052 395.776C911.358 385.647 898.088 371.068 888.685 352.776C884.773 345.169 882.328 337.05 880.972 328.557C879.727 320.779 879.961 313.001 880.394 305.201C880.461 303.963 880.394 302.725 880.394 301.136C878.905 300.943 877.549 300.659 876.182 300.625C871.747 300.489 867.302 300.534 862.856 300.33C849.297 299.716 836.582 296.219 825.079 288.646C824.357 288.169 823.557 287.851 822.49 287.306C811.853 297.605 801.584 308.13 791.07 318.383C790.325 319.11 789.736 320.007 789.014 320.904C789.536 321.631 789.881 322.267 790.37 322.766C846.596 380.595 902.834 438.423 959.082 496.229C959.438 496.593 959.994 496.752 960.638 497.092C961.327 496.627 962.139 496.241 962.75 495.639C1019.94 438.31 1077.46 381.321 1133 321.642L1133.02 321.619ZM590.471 115.069C592.238 116.965 593.527 118.43 594.894 119.815C607.631 132.725 620.401 145.601 633.127 158.523C658.334 184.105 683.519 209.709 708.714 235.291C721.696 248.462 734.677 261.633 747.68 274.782C748.636 275.758 749.714 276.61 750.937 277.7C764.807 263.7 778.422 249.961 791.815 236.449C791.659 231.43 791.503 226.9 791.37 222.369C791.237 217.691 791.681 212.979 791.003 207.995C789.647 207.995 788.603 207.881 787.602 208.017C785.146 208.358 782.712 208.846 780.256 209.244C769.22 211.049 758.305 210.356 747.558 207.37C724.307 200.909 700.534 180.642 689.353 157.91C688.798 156.774 688.242 155.639 687.742 154.481C681.173 139.209 680.284 123.63 685.486 107.779C687.998 100.149 691.799 93.1889 696.544 86.7736C704.546 75.9528 714.171 66.8918 725.297 59.5228C739.867 49.8828 755.838 45.1933 773.21 45.92C777.8 46.1131 782.356 47.0328 786.935 47.5778C788.125 47.7254 789.325 47.7594 791.037 47.873C791.837 34.4179 790.336 21.1671 792.526 8.14351C776.71 -7.92315 761.095 -23.7854 745.458 -39.625C745.002 -40.0905 744.324 -40.329 743.468 -40.8286C692.554 11.0503 641.763 62.8042 590.482 115.058L590.471 115.069ZM1172.37 277.223C1173.07 276.917 1173.67 276.837 1174.02 276.485C1226.34 223.153 1278.65 169.787 1330.95 116.42C1331.31 116.057 1331.44 115.478 1331.83 114.717C1281.54 63.2356 1231.21 11.7202 1180.88 -39.7839C1180.4 -40.2722 1179.73 -40.5674 1179.05 -41.0102C1178.39 -40.5788 1177.71 -40.2949 1177.23 -39.8067C1163.55 -26.0677 1149.88 -12.306 1136.22 1.46703C1135.73 1.95528 1135.46 2.65928 1135.26 2.98856C1135.92 7.79153 1136.85 12.2539 1137.07 16.7503C1137.49 25.0845 1137.46 33.4414 1137.68 41.7756C1137.72 43.7286 1137.25 45.7724 1138.31 47.5891C1139.94 48.4066 1141.49 47.7141 1143.02 47.4983C1155.46 45.7838 1167.82 45.8633 1180.02 49.281C1185.51 50.8252 1190.85 52.835 1195.88 55.5714C1214.02 65.4271 1228.77 78.9958 1238.84 97.4355C1245.05 108.813 1247.68 121.132 1246.39 134.145C1245.22 146.124 1240.9 156.979 1234.18 166.823C1225.83 179.029 1215.47 189.123 1203.15 197.06C1197.57 200.66 1191.62 203.487 1185.37 205.633C1171.56 210.368 1157.48 210.697 1143.23 208.483C1141.68 208.244 1140.11 208.029 1138.68 207.824C1137.16 209.868 1137.7 211.935 1137.69 213.876C1137.64 222.04 1137.75 230.215 1136.25 238.288C1135.95 239.867 1136.42 241.138 1137.44 242.263C1138.04 242.921 1138.65 243.591 1139.28 244.227C1149.38 254.446 1159.47 264.665 1169.59 274.861C1170.45 275.724 1171.47 276.44 1172.37 277.189V277.223ZM959.671 223.63C958.093 225.446 956.859 226.741 955.759 228.137C953.081 231.532 950.424 234.939 947.835 238.391C939.077 250.074 930.919 262.167 924.362 275.304C919.271 285.523 915.215 296.083 913.67 307.585C912.081 319.417 914.326 330.317 920.372 340.422C925.429 348.882 931.975 355.989 939.71 361.951C942.989 364.483 946.523 366.583 950.369 368.025C957.115 370.557 963.961 370.694 970.663 367.969C973.442 366.844 976.209 365.425 978.621 363.631C988.69 356.148 996.67 346.747 1002.28 335.347C1005.61 328.602 1007.16 321.381 1007.18 313.807C1007.2 307.392 1006.11 301.17 1004.35 295.05C1001.27 284.342 996.381 274.498 990.78 264.983C982.6 251.096 972.941 238.334 962.416 226.23C961.738 225.446 960.905 224.788 959.682 223.618L959.671 223.63ZM959.438 33.7139C960.883 32.4649 961.605 31.9767 962.172 31.3295C974.486 17.1931 985.667 2.21645 994.636 -14.4066C999.282 -23.0133 1003.15 -31.9493 1005.48 -41.5212C1009.65 -58.587 1006.88 -74.245 996.459 -88.3813C992.814 -93.3206 988.912 -98.0213 984.333 -102.086C982.055 -104.096 979.71 -106.094 977.154 -107.695C967.329 -113.861 957.159 -114.644 946.79 -109.149C944.278 -107.82 941.811 -106.321 939.566 -104.562C932.33 -98.8843 926.118 -92.1964 921.15 -84.3391C918.438 -80.0471 916.415 -75.4485 915.048 -70.5206C912.303 -60.5854 913.136 -50.7638 915.67 -40.9762C918.593 -29.6671 923.573 -19.2436 929.341 -9.21754C937.543 5.0551 947.257 18.249 957.548 31.0002C958.115 31.7041 958.582 32.4763 959.427 33.6912L959.438 33.7139ZM858.666 128.774C857.043 127.071 856.132 125.992 855.098 125.061C844.618 115.796 833.782 106.996 822.178 99.1955C816.088 95.0965 809.708 91.5084 803.084 88.3973C795.805 84.9682 788.291 82.1636 780.345 80.9374C770.742 79.4613 761.184 79.7111 752.148 83.8896C739.056 89.9529 728.597 99.2749 720.64 111.481C719.373 113.423 718.472 115.637 717.561 117.794C716.127 121.155 715.572 124.709 715.572 128.388C715.594 135.394 718.195 141.491 721.985 147.089C728.242 156.309 736.144 163.814 745.602 169.514C753.938 174.533 763.04 176.384 772.676 175.895C780.745 175.487 788.425 173.42 795.927 170.536C805.274 166.948 814.076 162.27 822.456 156.729C834.104 149.019 845.029 140.333 855.621 131.193C856.432 130.489 857.288 129.853 858.655 128.774H858.666ZM1070.4 128.467C1071.77 129.751 1072.64 130.659 1073.59 131.442C1078.44 135.416 1083.24 139.459 1088.18 143.308C1099.36 151.994 1110.99 159.999 1123.64 166.335C1131.47 170.263 1139.59 173.431 1148.18 175.225C1162.94 178.314 1176.39 175.259 1188.53 166.176C1194.3 161.861 1199.38 156.808 1203.85 151.108C1206.86 147.271 1209.37 143.115 1211.08 138.482C1213.63 131.567 1213.64 124.686 1211.04 117.771C1209.43 113.491 1207.12 109.63 1204.34 106.076C1198.64 98.7753 1191.91 92.6212 1184.18 87.6593C1176.82 82.9358 1168.82 80.188 1160.1 79.7338C1152.9 79.3591 1145.97 80.8011 1139.15 83.0039C1129.27 86.2059 1120.14 91.0202 1111.33 96.5385C1097.52 105.202 1084.84 115.421 1072.57 126.197C1071.92 126.764 1071.37 127.457 1070.41 128.467H1070.4Z" fill="white"/>
</g>
</g>
</g>
<defs>
<clipPath id="clip0_270_37">
<rect width="1920" height="232" fill="white"/>
</clipPath>
</defs>
</svg>
