<svg width="53" height="53" viewBox="0 0 53 53" fill="none" xmlns="http://www.w3.org/2000/svg">
<path d="M50.343 23.6694V15.7547C50.343 14.3436 49.7847 12.9902 48.7909 11.9924C47.7971 10.9946 46.4492 10.434 45.0437 10.434H29.1459V6.94358C29.9541 6.21464 30.4708 5.16645 30.4708 3.99056C30.4708 2.9322 30.052 1.91718 29.3067 1.16881C28.5613 0.420433 27.5504 0 26.4963 0C25.4422 0 24.4313 0.420433 23.6859 1.16881C22.9406 1.91718 22.5219 2.9322 22.5219 3.99056C22.5219 5.16645 23.0385 6.21464 23.8467 6.94358V10.434H7.94889C6.54344 10.434 5.19555 10.9946 4.20175 11.9924C3.20794 12.9902 2.64963 14.3436 2.64963 15.7547V23.7305L2.45886 23.7439C1.79085 23.7916 1.16572 24.0919 0.709438 24.5841C0.253156 25.0763 -0.000352385 25.7238 3.67643e-07 26.3962V31.717C3.67643e-07 32.4226 0.279157 33.0992 0.776059 33.5982C1.27296 34.0971 1.94691 34.3774 2.64963 34.3774V47.6792C2.64963 49.0904 3.20794 50.4437 4.20175 51.4416C5.19555 52.4394 6.54344 53 7.94889 53H45.0437C46.4492 53 47.7971 52.4394 48.7909 51.4416C49.7847 50.4437 50.343 49.0904 50.343 47.6792V34.3774C51.0457 34.3774 51.7197 34.0971 52.2166 33.5982C52.7135 33.0992 52.9926 32.4226 52.9926 31.717V26.5612C53.0233 26.1483 52.958 25.7339 52.8018 25.3507C52.2666 24.0525 51.1193 23.7412 50.343 23.6694ZM13.2482 26.3962C13.2482 23.4592 15.0287 21.0755 17.2226 21.0755C19.4165 21.0755 21.197 23.4592 21.197 26.3962C21.197 29.3333 19.4165 31.717 17.2226 31.717C15.0287 31.717 13.2482 29.3333 13.2482 26.3962ZM37.0895 42.3585C34.4372 42.3505 15.8978 42.3585 15.8978 42.3585V37.0377C15.8978 37.0377 34.4478 37.0324 37.1001 37.0377L37.0895 42.3585ZM35.77 31.717C33.5761 31.717 31.7956 29.3333 31.7956 26.3962C31.7956 23.4592 33.5761 21.0755 35.77 21.0755C37.9639 21.0755 39.7445 23.4592 39.7445 26.3962C39.7445 29.3333 37.9639 31.717 35.77 31.717Z" fill="white"/>
</svg>
