<svg width="78" height="78" viewBox="0 0 78 78" fill="none" xmlns="http://www.w3.org/2000/svg">
<rect x="0.666667" y="0.666667" width="76.6667" height="76.6667" stroke="url(#paint0_linear_270_71)" stroke-width="1.33333"/>
<path d="M22.4936 54.2168C22.7082 54.1599 22.9241 54.1614 23.1387 54.2168C22.9241 54.2168 22.7096 54.2168 22.4936 54.2168Z" fill="white"/>
<path d="M51.2649 54.2168C51.4795 54.1642 51.6954 54.1585 51.91 54.2168C51.6954 54.2168 51.4809 54.2168 51.2649 54.2168Z" fill="white"/>
<path d="M27.9654 54.2168C28.0577 54.1656 28.1501 54.1571 28.2425 54.2168C28.1501 54.2168 28.0577 54.2168 27.9654 54.2168Z" fill="white"/>
<path d="M63 37.2609C63 38.4203 63 39.5811 63 40.7405C62.9815 40.7845 62.9503 40.8257 62.9446 40.8712C62.8224 41.8132 62.7428 42.7623 62.5723 43.6957C62.2356 45.5456 61.6516 47.323 60.863 49.0294C60.0986 50.6832 59.1821 52.2503 58.0497 53.6782C57.3904 54.5094 56.6856 55.3078 55.9553 56.0779C55.4722 56.588 54.9152 57.0284 54.381 57.4888C53.0283 58.651 51.5421 59.6171 49.9564 60.4255C48.5426 61.1459 47.0862 61.7767 45.5488 62.1788C44.5272 62.4459 43.4814 62.6192 42.4442 62.8238C42.0591 62.8991 41.6684 62.9417 41.2791 63C39.7588 63 38.2384 63 36.7195 63C36.6655 62.983 36.6129 62.956 36.5575 62.9489C36.0162 62.8821 35.4691 62.8522 34.9349 62.7485C33.4415 62.4615 31.9652 62.1163 30.5458 61.5408C29.2841 61.0294 28.0436 60.4781 26.8714 59.7848C24.9745 58.6638 23.2254 57.3495 21.7378 55.717C20.9634 54.8674 20.2103 53.9922 19.5184 53.0758C18.1558 51.2756 17.1384 49.2794 16.3768 47.1568C15.7289 45.3509 15.2884 43.4954 15.1151 41.5802C15.0895 41.2988 15.0384 41.0189 15 40.739C15 39.5797 15 38.4189 15 37.2595C15.0199 37.1956 15.0512 37.1345 15.0568 37.0691C15.1222 36.4582 15.1506 35.8402 15.2529 35.2363C15.5058 33.7502 15.8582 32.291 16.374 30.8688C17.0134 29.1056 17.8304 27.4333 18.8605 25.8691C20.0128 24.1172 21.3371 22.506 22.9356 21.1421C23.7497 20.4473 24.5781 19.7625 25.4505 19.1473C27.2124 17.9055 29.1349 16.9593 31.1752 16.2631C32.8675 15.6862 34.6024 15.2842 36.387 15.1165C36.6783 15.0895 36.9682 15.0398 37.2594 15C38.4189 15 39.5797 15 40.7392 15C40.8031 15.0199 40.8642 15.0511 40.9296 15.0568C41.5405 15.1222 42.1586 15.1506 42.7625 15.2529C44.2487 15.5058 45.708 15.8596 47.1302 16.3739C48.895 17.0118 50.5645 17.8316 52.1303 18.8603C53.8822 20.0126 55.4935 21.3353 56.8576 22.9351C57.5524 23.7492 58.2372 24.5776 58.8525 25.4499C60.0957 27.2117 61.0378 29.1355 61.7368 31.1743C62.3166 32.8664 62.7158 34.6012 62.8835 36.3857C62.9119 36.6813 62.9616 36.9711 63 37.2609ZM54.776 40.3128C51.1044 42.5406 47.1587 43.7454 42.8278 43.4996C41.7054 43.4357 40.6369 43.1686 39.6465 42.6188C39.5641 42.5733 39.4774 42.5335 39.3936 42.4923C39.378 42.5108 39.3637 42.5307 39.3481 42.5491C39.4817 42.6756 39.5982 42.8333 39.7545 42.9242C40.2958 43.2396 40.8272 43.5948 41.407 43.8179C42.744 44.3336 44.1436 44.3749 45.546 44.1646C48.1234 43.7781 50.5574 42.9484 52.8379 41.6924C53.5341 41.3088 54.1749 40.82 54.8399 40.3796C55.0388 40.2588 55.2392 40.1395 55.4381 40.0187C55.3159 40.1892 55.2136 40.3782 55.0701 40.5274C54.1778 41.458 53.2997 42.4028 52.3747 43.2993C50.1439 45.4589 48.0041 47.6967 46.2394 50.264C44.8711 52.2546 43.7429 54.3616 43.176 56.7329C42.8833 57.9576 42.7611 59.1951 42.8989 60.4525C42.9358 60.7821 42.9983 60.8376 43.3166 60.7779C43.5226 60.7395 43.7273 60.6912 43.9319 60.6443C47.9103 59.7436 51.3687 57.8667 54.3199 55.0635C56.4313 53.0573 58.0781 50.7102 59.2716 48.0519C60.8346 44.5667 61.4299 40.9124 61.1102 37.1118C60.8673 34.219 60.0844 31.484 58.7473 28.8968C56.9584 25.4329 54.452 22.6126 51.2053 20.4814C46.6585 17.4978 41.6457 16.3071 36.2506 17.0076C29.3892 17.8984 24.0382 21.3069 20.2942 27.1066C17.0773 32.0893 16.1509 37.5664 17.2535 43.3803C17.7906 46.2134 18.8833 48.8319 20.486 51.233C20.5471 51.3239 20.6537 51.385 20.7389 51.4618C20.8 51.3751 20.881 51.2969 20.9194 51.2003C21.1368 50.6519 21.3584 50.1049 21.5531 49.5479C22.694 46.2759 22.9853 42.8589 23.2965 39.4419C23.4286 37.9813 23.5792 36.5136 23.8521 35.0744C24.2428 33.0114 25.2928 31.2965 26.9368 29.9695C28.8876 28.3952 31.1625 27.5044 33.5652 26.9403C35.2674 26.5411 36.9852 26.7229 38.6831 27.081C38.8465 27.1151 39.0185 27.1094 39.1861 27.1222C39.7062 27.2586 40.2305 27.3822 40.7463 27.5328C42.2893 27.9846 43.8097 28.4975 45.2533 29.2164C45.4224 29.3003 45.5858 29.4026 45.7619 29.4651C47.5522 30.0931 49.3397 30.7253 51.1371 31.332C52.4969 31.7909 53.8226 32.3123 54.9664 33.206C55.6356 33.7289 56.2153 34.337 56.5194 35.1482C57.1915 36.9413 56.5407 38.4658 55.5163 39.9065C55.2704 40.0443 55.0232 40.1778 54.776 40.3128ZM40.1481 33.5371C40.1452 31.1658 38.21 29.2306 35.8542 29.2392C33.4614 29.2491 31.5575 31.1658 31.5603 33.5641C31.5631 35.9297 33.5126 37.8676 35.867 37.8477C38.2469 37.8264 40.1509 35.9098 40.1481 33.5371ZM51.2039 36.9029C50.6839 36.9086 50.2761 37.3263 50.2832 37.8449C50.2917 38.3649 50.7066 38.7656 51.2309 38.7599C51.7566 38.7542 52.153 38.3464 52.1459 37.8179C52.1388 37.2908 51.7325 36.8972 51.2039 36.9029Z" fill="white"/>
<path d="M35.837 36.6018C37.5307 36.6032 38.8791 35.2677 38.8791 33.5883C38.8791 31.9075 37.525 30.5492 35.8512 30.5521C34.176 30.5535 32.8134 31.9203 32.8205 33.5897C32.829 35.2606 34.1704 36.6004 35.837 36.6018Z" fill="white"/>
<path d="M39.186 26.7003C40.3867 26.3693 41.5958 26.2414 42.8135 26.5824C43.9886 26.912 44.8454 27.6096 45.2532 28.7946C43.8096 28.0756 42.2892 27.5627 40.7462 27.1109C40.2304 26.9603 39.7075 26.8367 39.186 26.7003Z" fill="white"/>
<path d="M54.8399 40.3796C54.8186 40.3569 54.7973 40.3355 54.776 40.3128C55.0232 40.1778 55.269 40.0414 55.5163 39.9065C55.4907 39.9434 55.4637 39.9818 55.4381 40.0187C55.2392 40.1395 55.0388 40.2588 54.8399 40.3796Z" fill="white"/>
<path d="M39.4929 18.2551C39.7388 18.2125 39.9817 18.1528 40.229 18.1315C43.8408 17.8303 47.079 18.7695 49.8952 21.0768C51.6187 22.4891 53.3934 23.8459 54.9421 25.4585C57.4897 28.1112 59.1124 31.2468 59.7603 34.8741C60.0701 36.6061 60.1368 38.348 59.8868 40.0955C59.8711 40.2049 59.8314 40.3115 59.8029 40.4195C59.7745 40.4209 59.7447 40.4223 59.7163 40.4237C59.6836 40.32 59.6395 40.2177 59.6211 40.1112C59.2701 38.1093 58.8225 36.1315 58.1902 34.1992C57.2084 31.1971 55.8586 28.3797 54.0669 25.7697C52.5153 23.5106 50.4692 21.9378 47.923 20.9333C45.2745 19.889 42.6004 18.9556 39.7899 18.4555C39.6905 18.437 39.5938 18.3986 39.4958 18.3702C39.4944 18.3318 39.4929 18.2935 39.4929 18.2551Z" fill="white"/>
<path d="M35.837 36.6018C34.1704 36.6004 32.829 35.2606 32.8205 33.5897C32.8134 31.9203 34.176 30.5535 35.8512 30.5521C37.525 30.5492 38.8791 31.9075 38.8791 33.5883C38.8791 35.2677 37.5307 36.6032 35.837 36.6018Z" fill="white"/>
<defs>
<linearGradient id="paint0_linear_270_71" x1="13.2826" y1="1.35038e-05" x2="72.1572" y2="11.0091" gradientUnits="userSpaceOnUse">
<stop stop-color="white"/>
<stop offset="0.505" stop-color="#7E5E2C"/>
<stop offset="1" stop-color="#E8BC4D"/>
</linearGradient>
</defs>
</svg>
