<svg width="87" height="88" viewBox="0 0 87 88" fill="none" xmlns="http://www.w3.org/2000/svg">
<path d="M13.5718 71.6722C13.9604 71.5683 14.3516 71.5709 14.7402 71.6722C14.3516 71.6722 13.963 71.6722 13.5718 71.6722Z" fill="url(#paint0_linear_270_62)"/>
<path d="M23.4819 71.6722C23.6492 71.5787 23.8165 71.5631 23.9837 71.6722C23.8165 71.6722 23.6492 71.6722 23.4819 71.6722Z" fill="url(#paint1_linear_270_62)"/>
<path d="M86.934 40.6839C86.934 42.8027 86.934 44.9242 86.934 47.043C86.9005 47.1235 86.8439 47.1988 86.8336 47.2819C86.6123 49.0035 86.4682 50.738 86.1594 52.444C85.5495 55.8248 84.4919 59.0732 83.0636 62.1917C81.6791 65.2142 80.0193 68.0783 77.9683 70.6879C76.7743 72.2069 75.4979 73.6662 74.1752 75.0736C73.3002 76.0058 72.2915 76.8107 71.3239 77.652C68.874 79.7761 66.1822 81.5418 63.3104 83.0192C60.7498 84.3357 58.1121 85.4886 55.3277 86.2235C53.4775 86.7116 51.5835 87.0284 49.7049 87.4023C49.0075 87.5399 48.2998 87.6179 47.5947 87.7243C44.8412 87.7243 42.0877 87.7243 39.3367 87.7243C39.2389 87.6932 39.1437 87.6438 39.0434 87.6308C38.0629 87.5088 37.0721 87.4543 36.1046 87.2647C33.3999 86.7402 30.7262 86.1092 28.1554 85.0576C25.8702 84.1228 23.6236 83.1153 21.5006 81.8482C18.0651 79.7994 14.8973 77.3975 12.203 74.414C10.8005 72.8612 9.43659 71.2617 8.18336 69.5869C5.71548 66.297 3.87294 62.6487 2.49361 58.7694C1.32014 55.4691 0.522397 52.0779 0.208444 48.5776C0.162123 48.0635 0.0694813 47.552 0 47.0404C0 44.9216 0 42.8001 0 40.6813C0.0360274 40.5644 0.0926418 40.4528 0.102935 40.3333C0.221311 39.2168 0.272779 38.0873 0.458062 36.9837C0.916124 34.2676 1.55432 31.6009 2.48846 29.0017C3.64648 25.7793 5.12618 22.723 6.99188 19.8642C9.07889 16.6625 11.4773 13.718 14.3723 11.2252C15.8469 9.95545 17.3472 8.70388 18.9272 7.57954C22.1182 5.31009 25.6 3.58074 29.2954 2.3084C32.3603 1.25417 35.5024 0.519325 38.7346 0.212923C39.2621 0.163587 39.7871 0.0727054 40.3146 0C42.4145 0 44.5169 0 46.6168 0C46.7326 0.0363527 46.8433 0.0934784 46.9617 0.103865C48.0682 0.22331 49.1876 0.275242 50.2813 0.462199C52.9731 0.924398 55.6159 1.57096 58.1919 2.51093C61.388 3.67682 64.4118 5.17507 67.2476 7.05502C70.4206 9.16089 73.3388 11.5783 75.8093 14.5021C77.0677 15.99 78.308 17.5038 79.4223 19.0982C81.674 22.318 83.3802 25.8338 84.6463 29.56C85.6962 32.6525 86.4193 35.823 86.723 39.0844C86.7745 39.6245 86.8645 40.1542 86.934 40.6839ZM72.0393 46.2614C65.3896 50.3329 58.2434 52.5349 50.3997 52.0857C48.3667 51.9688 46.4315 51.4806 44.6379 50.4758C44.4886 50.3927 44.3317 50.32 44.1798 50.2447C44.1515 50.2784 44.1258 50.3148 44.0975 50.3485C44.3394 50.5796 44.5504 50.8678 44.8335 51.034C45.8139 51.6105 46.7764 52.2596 47.8263 52.6673C50.2479 53.6099 52.7826 53.6852 55.3226 53.3009C59.9907 52.5946 64.3989 51.0782 68.5292 48.7828C69.7901 48.0817 70.9507 47.1884 72.1551 46.3835C72.5153 46.1628 72.8782 45.9446 73.2385 45.7239C73.0171 46.0355 72.8319 46.3809 72.5719 46.6535C70.9559 48.3543 69.3655 50.0811 67.6902 51.7195C63.65 55.6664 59.7745 59.7561 56.5784 64.4482C54.1002 68.086 52.0569 71.9368 51.0302 76.2706C50.5001 78.5089 50.2787 80.7706 50.5284 83.0686C50.5953 83.671 50.7085 83.7723 51.2849 83.6632C51.6581 83.5931 52.0286 83.5048 52.3992 83.4191C59.6047 81.7729 65.8683 78.3427 71.2132 73.2196C75.0373 69.5531 78.0198 65.2635 80.1814 60.4052C83.0122 54.0357 84.0904 47.3572 83.5114 40.4112C83.0713 35.1245 81.6534 30.126 79.2319 25.3976C75.992 19.067 71.4525 13.9127 65.5724 10.0178C57.3375 4.56486 48.2586 2.38889 38.4875 3.66903C26.0606 5.29711 16.3693 11.5264 9.58842 22.1258C3.76229 31.2322 2.08444 41.2422 4.08138 51.8675C5.05412 57.0452 7.03305 61.8308 9.93583 66.2191C10.0465 66.3853 10.2395 66.4969 10.3939 66.6371C10.5045 66.4787 10.6512 66.3359 10.7207 66.1594C11.1144 65.1571 11.5159 64.1574 11.8684 63.1395C13.9349 57.1595 14.4624 50.9146 15.026 44.6697C15.2653 42.0004 15.5381 39.3181 16.0322 36.6877C16.7399 32.9174 18.6416 29.7833 21.619 27.358C25.1522 24.481 29.2722 22.8529 33.6238 21.822C36.7067 21.0924 39.8179 21.4247 42.8931 22.0791C43.1891 22.1414 43.5005 22.131 43.8041 22.1544C44.746 22.4037 45.6956 22.6296 46.6297 22.9048C49.4244 23.7305 52.1779 24.6679 54.7925 25.9818C55.0987 26.135 55.3946 26.322 55.7137 26.4362C58.9562 27.5839 62.1935 28.7394 65.4488 29.8482C67.9116 30.6869 70.3125 31.6399 72.3841 33.2731C73.5962 34.2287 74.6461 35.34 75.1968 36.8227C76.414 40.0997 75.2354 42.8858 73.38 45.5188C72.9348 45.7707 72.487 46.0148 72.0393 46.2614ZM45.5463 33.8781C45.5411 29.5444 42.0362 26.0078 37.7695 26.0234C33.436 26.0415 29.9876 29.5444 29.9928 33.9275C29.9979 38.2509 33.5286 41.7926 37.7927 41.7563C42.1031 41.7173 45.5514 38.2145 45.5463 33.8781ZM65.5698 40.0295C64.6279 40.0399 63.8894 40.8033 63.9022 41.7511C63.9177 42.7015 64.6691 43.4337 65.6187 43.4233C66.5708 43.4129 67.2888 42.6677 67.2759 41.7018C67.2631 40.7384 66.5271 40.0192 65.5698 40.0295Z" fill="url(#paint2_linear_270_62)"/>
<path d="M37.7385 39.4792C40.806 39.4818 43.2481 37.041 43.2481 33.9718C43.2481 30.9 40.7957 28.4176 37.7642 28.4228C34.7302 28.4254 32.2623 30.9234 32.2752 33.9744C32.2906 37.028 34.7199 39.4766 37.7385 39.4792Z" fill="url(#paint3_linear_270_62)"/>
<path d="M43.8039 21.3834C45.9784 20.7784 48.1684 20.5447 50.3738 21.1678C52.502 21.7703 54.0537 23.0452 54.7923 25.2108C52.1777 23.8969 49.4242 22.9595 46.6295 22.1338C45.6954 21.8585 44.7484 21.6326 43.8039 21.3834Z" fill="url(#paint4_linear_270_62)"/>
<path d="M72.1551 46.3835C72.1165 46.3419 72.0779 46.303 72.0393 46.2614C72.487 46.0148 72.9322 45.7655 73.38 45.5188C73.3337 45.5863 73.2848 45.6564 73.2385 45.7239C72.8782 45.9446 72.5153 46.1628 72.1551 46.3835Z" fill="url(#paint5_linear_270_62)"/>
<path d="M44.3598 5.94904C44.805 5.87114 45.245 5.76208 45.6928 5.72313C52.2343 5.17265 58.0991 6.88901 63.1995 11.1059C66.321 13.687 69.5352 16.1667 72.3402 19.1139C76.9542 23.9618 79.8931 29.6926 81.0665 36.3217C81.6275 39.487 81.7485 42.6705 81.2956 45.8643C81.2672 46.0643 81.1952 46.259 81.1437 46.4564C81.0922 46.459 81.0382 46.4616 80.9867 46.4641C80.9276 46.2746 80.8478 46.0876 80.8143 45.8929C80.1787 42.2343 79.3681 38.6198 78.2229 35.0883C76.4447 29.6017 74 24.4526 70.755 19.6826C67.9448 15.5539 64.2392 12.6795 59.6277 10.8437C54.8309 8.93515 49.9878 7.22917 44.8976 6.31516C44.7175 6.2814 44.5425 6.2113 44.3649 6.15936C44.3624 6.08925 44.3598 6.01915 44.3598 5.94904Z" fill="url(#paint6_linear_270_62)"/>
<path d="M37.7385 39.4792C34.7199 39.4766 32.2906 37.028 32.2752 33.9744C32.2623 30.9234 34.7302 28.4254 37.7642 28.4228C40.7957 28.4176 43.2481 30.9 43.2481 33.9718C43.2481 37.041 40.806 39.4818 37.7385 39.4792Z" fill="url(#paint7_linear_270_62)"/>
<defs>
<linearGradient id="paint0_linear_270_62" x1="86.934" y1="-20.024" x2="-16.6466" y2="-10.0724" gradientUnits="userSpaceOnUse">
<stop offset="0.0342727" stop-color="#CCA757"/>
<stop offset="0.195" stop-color="#DABA5C"/>
<stop offset="0.335" stop-color="#CDAA56"/>
<stop offset="0.5" stop-color="#715225"/>
<stop offset="0.64" stop-color="#9D7A40"/>
<stop offset="0.83" stop-color="#CFAC5B"/>
<stop offset="1" stop-color="#B99850"/>
</linearGradient>
<linearGradient id="paint1_linear_270_62" x1="86.934" y1="-20.024" x2="-16.6466" y2="-10.0724" gradientUnits="userSpaceOnUse">
<stop offset="0.0342727" stop-color="#CCA757"/>
<stop offset="0.195" stop-color="#DABA5C"/>
<stop offset="0.335" stop-color="#CDAA56"/>
<stop offset="0.5" stop-color="#715225"/>
<stop offset="0.64" stop-color="#9D7A40"/>
<stop offset="0.83" stop-color="#CFAC5B"/>
<stop offset="1" stop-color="#B99850"/>
</linearGradient>
<linearGradient id="paint2_linear_270_62" x1="86.934" y1="-20.024" x2="-16.6466" y2="-10.0724" gradientUnits="userSpaceOnUse">
<stop offset="0.0342727" stop-color="#CCA757"/>
<stop offset="0.195" stop-color="#DABA5C"/>
<stop offset="0.335" stop-color="#CDAA56"/>
<stop offset="0.5" stop-color="#715225"/>
<stop offset="0.64" stop-color="#9D7A40"/>
<stop offset="0.83" stop-color="#CFAC5B"/>
<stop offset="1" stop-color="#B99850"/>
</linearGradient>
<linearGradient id="paint3_linear_270_62" x1="86.934" y1="-20.024" x2="-16.6466" y2="-10.0724" gradientUnits="userSpaceOnUse">
<stop offset="0.0342727" stop-color="#CCA757"/>
<stop offset="0.195" stop-color="#DABA5C"/>
<stop offset="0.335" stop-color="#CDAA56"/>
<stop offset="0.5" stop-color="#715225"/>
<stop offset="0.64" stop-color="#9D7A40"/>
<stop offset="0.83" stop-color="#CFAC5B"/>
<stop offset="1" stop-color="#B99850"/>
</linearGradient>
<linearGradient id="paint4_linear_270_62" x1="86.934" y1="-20.024" x2="-16.6466" y2="-10.0724" gradientUnits="userSpaceOnUse">
<stop offset="0.0342727" stop-color="#CCA757"/>
<stop offset="0.195" stop-color="#DABA5C"/>
<stop offset="0.335" stop-color="#CDAA56"/>
<stop offset="0.5" stop-color="#715225"/>
<stop offset="0.64" stop-color="#9D7A40"/>
<stop offset="0.83" stop-color="#CFAC5B"/>
<stop offset="1" stop-color="#B99850"/>
</linearGradient>
<linearGradient id="paint5_linear_270_62" x1="86.934" y1="-20.024" x2="-16.6466" y2="-10.0724" gradientUnits="userSpaceOnUse">
<stop offset="0.0342727" stop-color="#CCA757"/>
<stop offset="0.195" stop-color="#DABA5C"/>
<stop offset="0.335" stop-color="#CDAA56"/>
<stop offset="0.5" stop-color="#715225"/>
<stop offset="0.64" stop-color="#9D7A40"/>
<stop offset="0.83" stop-color="#CFAC5B"/>
<stop offset="1" stop-color="#B99850"/>
</linearGradient>
<linearGradient id="paint6_linear_270_62" x1="86.934" y1="-20.024" x2="-16.6466" y2="-10.0724" gradientUnits="userSpaceOnUse">
<stop offset="0.0342727" stop-color="#CCA757"/>
<stop offset="0.195" stop-color="#DABA5C"/>
<stop offset="0.335" stop-color="#CDAA56"/>
<stop offset="0.5" stop-color="#715225"/>
<stop offset="0.64" stop-color="#9D7A40"/>
<stop offset="0.83" stop-color="#CFAC5B"/>
<stop offset="1" stop-color="#B99850"/>
</linearGradient>
<linearGradient id="paint7_linear_270_62" x1="86.934" y1="-20.024" x2="-16.6466" y2="-10.0724" gradientUnits="userSpaceOnUse">
<stop offset="0.0342727" stop-color="#CCA757"/>
<stop offset="0.195" stop-color="#DABA5C"/>
<stop offset="0.335" stop-color="#CDAA56"/>
<stop offset="0.5" stop-color="#715225"/>
<stop offset="0.64" stop-color="#9D7A40"/>
<stop offset="0.83" stop-color="#CFAC5B"/>
<stop offset="1" stop-color="#B99850"/>
</linearGradient>
</defs>
</svg>
