<svg width="88" height="88" viewBox="0 0 88 88" fill="none" xmlns="http://www.w3.org/2000/svg">
<path d="M60.3983 38.2142C60.3314 38.3166 60.2639 38.418 60.1967 38.5191C60.0523 38.7361 59.9086 38.9522 59.7718 39.175C58.8057 40.7348 57.8399 42.2947 56.8742 43.8544C54.3466 47.937 51.8194 52.0188 49.287 56.0982C48.3423 57.6198 47.2557 59.0195 45.8166 60.1168C44.774 60.9117 43.6237 61.4677 42.2826 61.5165C40.3393 61.5848 38.7877 60.8093 37.6325 59.2584C36.7612 58.088 36.35 56.7273 36.0906 55.313C35.8899 54.201 35.8312 53.0793 35.8312 51.9478C35.8279 49.0865 35.829 46.223 35.8301 43.3602C35.8306 41.9291 35.8312 40.4981 35.8312 39.0677V38.5069C35.8119 38.5005 35.7926 38.495 35.7737 38.4896C35.7495 38.4828 35.7259 38.4761 35.7039 38.4678C32.4266 43.7196 29.1506 48.9728 25.8701 54.2334C23.0212 58.8017 20.1689 63.3756 17.3092 67.959C17.3532 68.011 17.3962 68.0636 17.4391 68.1161C17.525 68.2212 17.611 68.3264 17.7056 68.4272C23.0802 74.2552 29.6441 78.0056 37.466 79.3663C48.1221 81.2195 57.6866 78.664 66.1301 71.9289C66.5712 71.5794 66.9876 71.2004 67.4039 70.8216C67.5743 70.6665 67.7447 70.5115 67.9167 70.3585C70.139 68.3833 73.5605 69.3636 74.3534 72.2215C74.7842 73.7821 74.3779 75.1525 73.213 76.2694C71.5438 77.869 69.7327 79.3029 67.814 80.6002C63.0513 83.819 57.8481 85.9941 52.2093 87.1402C48.4207 87.9108 44.588 88.179 40.7309 87.8815C30.7112 87.1207 21.9837 83.341 14.5876 76.5766C8.22436 70.7535 3.96586 63.6331 1.73872 55.313C0.549276 50.8749 0.0842678 46.3539 0.333904 41.7744C0.84786 32.2253 4.05887 23.6662 10.0893 16.2239C16.4966 8.30855 24.7003 3.19259 34.676 0.968687C38.8366 0.0420593 43.051 -0.196913 47.3046 0.15423C61.5437 1.31983 74.0793 9.58632 81.1377 21.6569C83.8494 26.2949 85.6507 31.2597 86.5709 36.5463C86.9772 38.8726 87.1975 41.2185 87.2024 43.5838C87.2073 45.8516 87.1191 48.1145 86.5024 50.3287C85.5039 53.9035 83.6732 56.9419 80.5797 59.0634C76.282 62.0139 71.7396 62.2822 67.1434 59.8047C64.5099 58.3855 62.8212 56.0738 61.7395 53.3183C60.8976 51.1822 60.5402 48.9485 60.5402 46.6563V38.7361V38.2776C60.5268 38.2715 60.514 38.2658 60.5016 38.2602C60.4644 38.2435 60.4313 38.2289 60.3983 38.2142ZM12.3605 60.8825C12.3973 60.8281 12.4318 60.7776 12.4645 60.7299C12.5577 60.5937 12.6355 60.4798 12.708 60.3606C13.9639 58.3496 15.2198 56.3383 16.4758 54.327C21.7743 45.8415 27.0741 37.3541 32.3803 28.8699C32.8747 28.0799 33.418 27.3191 33.9956 26.5875C34.5536 25.8803 35.2536 25.3049 36.0563 24.8757C38.2296 23.715 40.8582 24.3246 42.2483 26.3534C42.5909 26.8557 42.8601 27.4263 43.0706 27.997C43.565 29.3332 43.7021 30.7329 43.7021 32.1473C43.7053 35.9609 43.7042 39.7724 43.7031 43.5845C43.7026 45.4909 43.7021 47.3974 43.7021 49.3045V49.8556C43.7212 49.861 43.7403 49.865 43.7602 49.8691C43.776 49.8723 43.7924 49.8757 43.8097 49.88C43.8616 49.7988 43.9141 49.7176 43.9668 49.6362C44.0535 49.5024 44.1406 49.3678 44.2258 49.2314L53.154 34.8199C53.9273 33.5762 54.7546 32.3716 55.7188 31.2694C56.5461 30.3233 57.4467 29.4601 58.5187 28.7919C59.4928 28.1872 60.5354 27.7629 61.6954 27.7433C63.9764 27.7043 65.6945 28.7285 66.8937 30.6257C67.8923 32.2009 68.3328 33.9615 68.3622 35.7953C68.4007 37.9968 68.3992 40.1983 68.3978 42.3998C68.397 43.5585 68.3963 44.7173 68.4013 45.876C68.4062 46.5636 68.4258 47.2513 68.4894 47.9292C68.6069 49.1289 68.8957 50.2848 69.532 51.3285C70.232 52.4843 71.2452 53.1768 72.5962 53.3524C73.6829 53.4938 74.701 53.2646 75.6408 52.7038C76.8498 51.9917 77.7162 50.9724 78.3134 49.7191C78.9399 48.412 79.2336 47.0172 79.2679 45.5834C79.3462 42.5499 79.1406 39.531 78.5092 36.5609C77.026 29.6015 73.7905 23.5686 68.7929 18.4917C60.4766 10.0448 48.4941 6.31387 36.8689 8.65482C28.391 10.3618 21.4257 14.6486 16.0855 21.4081C9.73197 29.4698 7.30413 38.6727 8.53273 48.8363C9.02222 52.8891 10.2508 56.7273 12.0717 60.3802C12.1215 60.4794 12.1773 60.5728 12.2415 60.6803C12.2782 60.7418 12.3177 60.808 12.3605 60.8825Z" fill="url(#paint0_linear_270_63)"/>
<path d="M60.3983 38.2142C60.3314 38.3166 60.2639 38.418 60.1967 38.5191C60.0523 38.7361 59.9086 38.9522 59.7718 39.175C58.8057 40.7348 57.8399 42.2947 56.8742 43.8544C54.3466 47.937 51.8194 52.0188 49.287 56.0982C48.3423 57.6198 47.2557 59.0195 45.8166 60.1168C44.774 60.9117 43.6237 61.4677 42.2826 61.5165C40.3393 61.5848 38.7877 60.8093 37.6325 59.2584C36.7612 58.088 36.35 56.7273 36.0906 55.313C35.8899 54.201 35.8312 53.0793 35.8312 51.9478C35.8279 49.0865 35.829 46.223 35.8301 43.3602C35.8306 41.9291 35.8312 40.4981 35.8312 39.0677V38.5069C35.8119 38.5005 35.7926 38.495 35.7737 38.4896C35.7495 38.4828 35.7259 38.4761 35.7039 38.4678C32.4266 43.7196 29.1506 48.9728 25.8701 54.2334C23.0212 58.8017 20.1689 63.3756 17.3092 67.959C17.3532 68.011 17.3962 68.0636 17.4391 68.1161C17.525 68.2212 17.611 68.3264 17.7056 68.4272C23.0802 74.2552 29.6441 78.0056 37.466 79.3663C48.1221 81.2195 57.6866 78.664 66.1301 71.9289C66.5712 71.5794 66.9876 71.2004 67.4039 70.8216C67.5743 70.6665 67.7447 70.5115 67.9167 70.3585C70.139 68.3833 73.5605 69.3636 74.3534 72.2215C74.7842 73.7821 74.3779 75.1525 73.213 76.2694C71.5438 77.869 69.7327 79.3029 67.814 80.6002C63.0513 83.819 57.8481 85.9941 52.2093 87.1402C48.4207 87.9108 44.588 88.179 40.7309 87.8815C30.7112 87.1207 21.9837 83.341 14.5876 76.5766C8.22436 70.7535 3.96586 63.6331 1.73872 55.313C0.549276 50.8749 0.0842678 46.3539 0.333904 41.7744C0.84786 32.2253 4.05887 23.6662 10.0893 16.2239C16.4966 8.30855 24.7003 3.19259 34.676 0.968687C38.8366 0.0420593 43.051 -0.196913 47.3046 0.15423C61.5437 1.31983 74.0793 9.58632 81.1377 21.6569C83.8494 26.2949 85.6507 31.2597 86.5709 36.5463C86.9772 38.8726 87.1975 41.2185 87.2024 43.5838C87.2073 45.8516 87.1191 48.1145 86.5024 50.3287C85.5039 53.9035 83.6732 56.9419 80.5797 59.0634C76.282 62.0139 71.7396 62.2822 67.1434 59.8047C64.5099 58.3855 62.8212 56.0738 61.7395 53.3183C60.8976 51.1822 60.5402 48.9485 60.5402 46.6563V38.7361V38.2776C60.5268 38.2715 60.514 38.2658 60.5016 38.2602C60.4644 38.2435 60.4313 38.2289 60.3983 38.2142ZM12.3605 60.8825C12.3973 60.8281 12.4318 60.7776 12.4645 60.7299C12.5577 60.5937 12.6355 60.4798 12.708 60.3606C13.9639 58.3496 15.2198 56.3383 16.4758 54.327C21.7743 45.8415 27.0741 37.3541 32.3803 28.8699C32.8747 28.0799 33.418 27.3191 33.9956 26.5875C34.5536 25.8803 35.2536 25.3049 36.0563 24.8757C38.2296 23.715 40.8582 24.3246 42.2483 26.3534C42.5909 26.8557 42.8601 27.4263 43.0706 27.997C43.565 29.3332 43.7021 30.7329 43.7021 32.1473C43.7053 35.9609 43.7042 39.7724 43.7031 43.5845C43.7026 45.4909 43.7021 47.3974 43.7021 49.3045V49.8556C43.7212 49.861 43.7403 49.865 43.7602 49.8691C43.776 49.8723 43.7924 49.8757 43.8097 49.88C43.8616 49.7988 43.9141 49.7176 43.9668 49.6362C44.0535 49.5024 44.1406 49.3678 44.2258 49.2314L53.154 34.8199C53.9273 33.5762 54.7546 32.3716 55.7188 31.2694C56.5461 30.3233 57.4467 29.4601 58.5187 28.7919C59.4928 28.1872 60.5354 27.7629 61.6954 27.7433C63.9764 27.7043 65.6945 28.7285 66.8937 30.6257C67.8923 32.2009 68.3328 33.9615 68.3622 35.7953C68.4007 37.9968 68.3992 40.1983 68.3978 42.3998C68.397 43.5585 68.3963 44.7173 68.4013 45.876C68.4062 46.5636 68.4258 47.2513 68.4894 47.9292C68.6069 49.1289 68.8957 50.2848 69.532 51.3285C70.232 52.4843 71.2452 53.1768 72.5962 53.3524C73.6829 53.4938 74.701 53.2646 75.6408 52.7038C76.8498 51.9917 77.7162 50.9724 78.3134 49.7191C78.9399 48.412 79.2336 47.0172 79.2679 45.5834C79.3462 42.5499 79.1406 39.531 78.5092 36.5609C77.026 29.6015 73.7905 23.5686 68.7929 18.4917C60.4766 10.0448 48.4941 6.31387 36.8689 8.65482C28.391 10.3618 21.4257 14.6486 16.0855 21.4081C9.73197 29.4698 7.30413 38.6727 8.53273 48.8363C9.02222 52.8891 10.2508 56.7273 12.0717 60.3802C12.1215 60.4794 12.1773 60.5728 12.2415 60.6803C12.2782 60.7418 12.3177 60.808 12.3605 60.8825Z" stroke="url(#paint1_linear_270_63)"/>
<defs>
<linearGradient id="paint0_linear_270_63" x1="87.2025" y1="-20.087" x2="-16.384" y2="-10.1659" gradientUnits="userSpaceOnUse">
<stop offset="0.0342727" stop-color="#CCA757"/>
<stop offset="0.195" stop-color="#DABA5C"/>
<stop offset="0.335" stop-color="#CDAA56"/>
<stop offset="0.5" stop-color="#715225"/>
<stop offset="0.64" stop-color="#9D7A40"/>
<stop offset="0.83" stop-color="#CFAC5B"/>
<stop offset="1" stop-color="#B99850"/>
</linearGradient>
<linearGradient id="paint1_linear_270_63" x1="87.2025" y1="-20.087" x2="-16.384" y2="-10.1659" gradientUnits="userSpaceOnUse">
<stop offset="0.0342727" stop-color="#CCA757"/>
<stop offset="0.195" stop-color="#DABA5C"/>
<stop offset="0.335" stop-color="#CDAA56"/>
<stop offset="0.5" stop-color="#715225"/>
<stop offset="0.64" stop-color="#9D7A40"/>
<stop offset="0.83" stop-color="#CFAC5B"/>
<stop offset="1" stop-color="#B99850"/>
</linearGradient>
</defs>
</svg>
