<svg width="74" height="88" viewBox="0 0 74 88" fill="none" xmlns="http://www.w3.org/2000/svg">
<path d="M63.6509 63.4975C61.2338 67.4016 58.8955 71.177 56.4889 75.0681C53.9326 72.6772 51.5181 70.4204 48.9696 68.0374C44.9551 74.5505 41.0352 80.9112 36.9655 87.5136C32.9326 80.9821 29.0022 74.6135 24.9456 68.0453C22.4287 70.3941 20.0195 72.6431 17.4237 75.0654C15.0355 71.2059 12.7051 67.441 10.2696 63.5053C7.06954 66.0696 3.95094 68.5655 0.538086 71.3005C0.714115 70.7041 0.748269 70.4624 0.853361 70.2522C5.26196 61.3746 7.18777 51.9269 7.31388 42.0719C7.3638 38.2623 7.3454 34.4527 7.34278 30.6432C7.34278 25.9508 8.46726 21.5396 10.6059 17.3779C10.7845 17.0311 10.9842 16.7001 11.2863 16.1668C12.177 17.2676 12.8864 18.3711 13.8164 19.2381C15.5242 20.8276 16.0023 22.2568 15.0696 24.7291C12.889 30.5118 16.7905 36.0186 23.3088 36.9907C23.9946 37.0932 24.6882 37.1536 25.4606 37.2403C25.3792 38.5513 25.3634 39.815 25.1795 41.0551C25.1243 41.4229 24.6435 41.8118 24.2652 42.0377C21.8954 43.4486 19.4993 44.8148 17.1137 46.1994C16.7485 46.4122 16.3991 46.6513 15.8972 46.9692C16.2913 47.2608 16.5383 47.4815 16.8194 47.6417C18.4536 48.5744 20.0536 49.5833 21.7482 50.3951C24.6488 51.7824 26.6192 54.0261 28.1378 56.7768C31.3168 62.5385 33.127 68.8099 34.9845 75.0628C35.5941 77.1121 36.18 79.1693 37.068 81.258C37.2493 80.7194 37.4384 80.186 37.6092 79.6448C39.3537 74.138 41.0641 68.6181 42.8585 63.127C43.3446 61.6347 44.0618 60.216 44.7108 58.7815C46.5184 54.788 49.1378 51.5879 53.2731 49.7646C54.8889 49.0526 56.3733 48.049 58.1757 47.0322C56.9435 46.3071 55.9819 45.737 55.015 45.1747C53.352 44.2052 51.7125 43.1832 50.0074 42.2952C49.0406 41.7908 48.5571 41.1891 48.6176 40.0567C48.6675 39.1582 48.4967 38.2492 48.4153 37.2613C49.2061 37.1641 49.8944 37.0958 50.5775 36.9959C55.9845 36.213 59.7021 32.2064 59.379 27.296C59.2844 25.8483 58.7537 24.3981 58.244 23.0187C57.9471 22.2174 57.9208 21.7025 58.5225 21.0378C59.8992 19.5218 61.1839 17.9192 62.6263 16.2062C62.9337 16.7421 63.2253 17.2045 63.467 17.6906C65.7134 22.1649 66.5804 26.9124 66.625 31.9121C66.6828 38.2544 66.7538 44.6151 67.3055 50.9259C67.8861 57.5992 69.9801 63.9415 72.9174 69.979C73.0619 70.2759 73.1644 70.5938 73.0934 71.0746C69.9827 68.5786 66.872 66.0853 63.6457 63.4975H63.6509Z" fill="url(#paint0_linear_270_64)"/>
<path d="M8.91387 5.06645C10.2433 6.08584 11.4729 7.19718 12.8574 8.05368C14.9356 9.33843 15.356 9.2202 17.1715 7.57551C28.4242 -2.62101 45.8457 -2.52643 56.9933 7.8724C58.1783 8.97849 59.2371 9.16765 60.4666 8.37158C62.0272 7.3627 63.5012 6.21195 65.0749 5.07696C64.7649 5.76005 64.4785 6.50095 64.1054 7.19193C61.0604 12.8643 56.5993 17.3044 51.568 21.1639C48.8356 23.2605 45.8326 25.005 42.8953 26.8152C42.4697 27.0779 41.6132 27.0227 41.1429 26.7679C38.2713 25.202 35.4811 25.2178 32.6488 26.8546C32.2731 27.0727 31.59 27.1489 31.2327 26.9544C22.4523 22.1465 14.8883 16.0065 9.79927 7.1893C9.4945 6.66122 9.26855 6.08584 9.01896 5.52623C8.95328 5.38172 8.9454 5.21095 8.91387 5.06382V5.06645Z" fill="url(#paint1_linear_270_64)"/>
<path d="M36.9708 65.439C34.5773 58.4189 32.6384 51.2569 25.4448 46.9534C26.656 46.2467 27.6124 45.6161 28.6344 45.1117C29.7221 44.5757 30.0347 43.777 30.0899 42.5895C30.1897 40.4614 30.3868 38.3201 30.7966 36.234C31.1881 34.2478 32.3967 32.6609 34.0256 31.434C35.9409 29.9916 37.9061 29.9758 39.8293 31.3893C41.7104 32.7739 42.919 34.6445 43.3262 36.9119C43.6572 38.751 43.7965 40.64 43.8306 42.5106C43.8517 43.7481 44.1775 44.5888 45.3282 45.1406C46.3056 45.6082 47.2146 46.2177 48.4337 46.9297C41.34 51.1991 39.317 58.39 36.9682 65.4417L36.9708 65.439Z" fill="url(#paint2_linear_270_64)"/>
<path d="M19.9354 25.4437C22.9936 27.3853 25.9624 29.2691 28.9418 31.1607C27.0055 32.787 23.0093 32.6504 20.855 30.9164C19.1604 29.5502 18.8004 27.5246 19.9354 25.4437Z" fill="url(#paint3_linear_270_64)"/>
<path d="M53.9273 25.4753C55.0203 27.1173 54.8469 29.0983 53.5096 30.496C51.5706 32.5217 47.7374 32.9 44.8553 31.2448C47.9239 29.2927 50.9243 27.3853 53.9273 25.4779V25.4753Z" fill="url(#paint4_linear_270_64)"/>
<defs>
<linearGradient id="paint0_linear_270_64" x1="73.1165" y1="-19.9759" x2="-13.5973" y2="-13.0038" gradientUnits="userSpaceOnUse">
<stop offset="0.0342727" stop-color="#CCA757"/>
<stop offset="0.195" stop-color="#DABA5C"/>
<stop offset="0.335" stop-color="#CDAA56"/>
<stop offset="0.5" stop-color="#715225"/>
<stop offset="0.64" stop-color="#9D7A40"/>
<stop offset="0.83" stop-color="#CFAC5B"/>
<stop offset="1" stop-color="#B99850"/>
</linearGradient>
<linearGradient id="paint1_linear_270_64" x1="73.1165" y1="-19.9759" x2="-13.5973" y2="-13.0038" gradientUnits="userSpaceOnUse">
<stop offset="0.0342727" stop-color="#CCA757"/>
<stop offset="0.195" stop-color="#DABA5C"/>
<stop offset="0.335" stop-color="#CDAA56"/>
<stop offset="0.5" stop-color="#715225"/>
<stop offset="0.64" stop-color="#9D7A40"/>
<stop offset="0.83" stop-color="#CFAC5B"/>
<stop offset="1" stop-color="#B99850"/>
</linearGradient>
<linearGradient id="paint2_linear_270_64" x1="73.1165" y1="-19.9759" x2="-13.5973" y2="-13.0038" gradientUnits="userSpaceOnUse">
<stop offset="0.0342727" stop-color="#CCA757"/>
<stop offset="0.195" stop-color="#DABA5C"/>
<stop offset="0.335" stop-color="#CDAA56"/>
<stop offset="0.5" stop-color="#715225"/>
<stop offset="0.64" stop-color="#9D7A40"/>
<stop offset="0.83" stop-color="#CFAC5B"/>
<stop offset="1" stop-color="#B99850"/>
</linearGradient>
<linearGradient id="paint3_linear_270_64" x1="73.1165" y1="-19.9759" x2="-13.5973" y2="-13.0038" gradientUnits="userSpaceOnUse">
<stop offset="0.0342727" stop-color="#CCA757"/>
<stop offset="0.195" stop-color="#DABA5C"/>
<stop offset="0.335" stop-color="#CDAA56"/>
<stop offset="0.5" stop-color="#715225"/>
<stop offset="0.64" stop-color="#9D7A40"/>
<stop offset="0.83" stop-color="#CFAC5B"/>
<stop offset="1" stop-color="#B99850"/>
</linearGradient>
<linearGradient id="paint4_linear_270_64" x1="73.1165" y1="-19.9759" x2="-13.5973" y2="-13.0038" gradientUnits="userSpaceOnUse">
<stop offset="0.0342727" stop-color="#CCA757"/>
<stop offset="0.195" stop-color="#DABA5C"/>
<stop offset="0.335" stop-color="#CDAA56"/>
<stop offset="0.5" stop-color="#715225"/>
<stop offset="0.64" stop-color="#9D7A40"/>
<stop offset="0.83" stop-color="#CFAC5B"/>
<stop offset="1" stop-color="#B99850"/>
</linearGradient>
</defs>
</svg>
