<svg width="77" height="88" viewBox="0 0 77 88" fill="none" xmlns="http://www.w3.org/2000/svg">
<path d="M0.451172 68.0001C0.494384 67.5715 0.568206 67.143 0.573607 66.7145C0.600615 64.8528 0.593413 62.991 0.624022 61.1293C0.654631 59.1973 0.706846 57.2672 0.762662 55.3352C0.773465 54.9751 0.847287 54.615 0.886898 54.2549C0.921108 53.9326 1.08856 53.7327 1.38744 53.5977C2.55058 53.0737 3.70291 52.5264 4.86425 51.9988C7.68747 50.7169 10.5125 49.4385 13.3375 48.1619C19.5745 45.3405 25.8097 42.5209 32.0467 39.7013C36.503 37.6865 40.9611 35.6717 45.4174 33.6569C49.8521 31.6511 54.2885 29.649 58.7196 27.636C59.6145 27.2291 60.4913 26.7861 61.3754 26.3558C61.5086 26.291 61.6311 26.2028 61.8129 26.0947C61.6725 25.9795 61.5789 25.8841 61.4672 25.8156C60.6462 25.3187 59.8288 24.8164 58.9987 24.3356C57.218 23.3021 55.4283 22.2794 53.644 21.2495C53.3829 21.0983 53.1326 20.9272 52.8175 20.7274C53.021 20.6175 53.1686 20.5311 53.3235 20.4591C54.8917 19.7227 56.451 18.9719 58.03 18.2589C60.6534 17.0759 63.2876 15.9164 65.9181 14.7478C65.9505 14.7334 65.9829 14.719 66.0135 14.7028C66.3124 14.5354 66.5933 14.5516 66.9048 14.71C67.9671 15.252 69.0474 15.7615 70.1115 16.3017C72.1263 17.3226 74.1321 18.3615 76.1469 19.3824C76.3989 19.5102 76.5034 19.6561 76.4998 19.9459C76.4746 21.8311 76.4692 23.7162 76.453 25.6014C76.4332 27.7674 76.4098 29.9334 76.3845 32.0995C76.3773 32.6846 76.3485 33.2698 76.3539 33.855C76.3557 34.116 76.2567 34.2511 76.0226 34.3573C74.3896 35.0919 72.7637 35.8427 71.1342 36.581C60.9649 41.1831 50.7955 45.7888 40.6226 50.382C33.6582 53.5257 26.6848 56.646 19.7203 59.7879C18.3231 60.4181 16.9457 61.0915 15.5629 61.7505C15.3667 61.8441 15.183 61.9647 14.9328 62.107C15.0858 62.2366 15.174 62.35 15.2875 62.404C17.3725 63.3727 19.2882 64.6457 21.3084 65.7332C21.9566 66.0825 22.5976 66.448 23.2368 66.8153C23.3754 66.8945 23.496 67.0044 23.6725 67.1358C23.5014 67.2384 23.3826 67.3267 23.2512 67.3897C21.9134 68.0343 20.5828 68.6969 19.2306 69.3144C16.3588 70.6288 13.4743 71.918 10.5989 73.2288C10.336 73.3494 10.1326 73.335 9.8805 73.2054C6.90244 71.6785 3.91717 70.1625 0.933712 68.6464C0.777066 68.5672 0.615019 68.5006 0.454773 68.4286C0.454773 68.2881 0.454773 68.1477 0.454773 68.0073L0.451172 68.0001Z" fill="url(#paint0_linear_270_65)"/>
<path d="M37.8678 27.4109C37.6463 27.5351 37.4915 27.6378 37.3241 27.7134C36.0295 28.313 34.7331 28.9125 33.4349 29.5049C30.9124 30.6554 28.3845 31.7952 25.8655 32.9511C25.6045 33.0717 25.4064 33.0645 25.1525 32.9259C21.0329 30.6789 16.9079 28.4426 12.783 26.2046C12.6731 26.1451 12.5579 26.0983 12.3886 26.0209C12.3814 26.21 12.3724 26.345 12.3724 26.48C12.3724 30.5078 12.3724 34.5356 12.3706 38.5633C12.3706 39.0585 12.4589 38.9919 11.9637 39.2097C8.4653 40.7564 4.96509 42.2994 1.46488 43.8425C1.23261 43.9451 0.993139 44.0351 0.71766 44.1486C0.701455 44.0081 0.68345 43.9091 0.681649 43.8119C0.65104 42.1032 0.620432 40.3945 0.595224 38.6858C0.584421 37.971 0.584421 37.258 0.582621 36.5432C0.564615 31.111 0.54661 25.6788 0.528605 20.2466C0.528605 20.1404 0.535807 20.036 0.528605 19.9297C0.508799 19.6921 0.598825 19.548 0.82389 19.4346C3.77674 17.9366 6.7224 16.4241 9.67525 14.9261C10.2694 14.6254 10.8906 14.3769 11.492 14.0889C11.7819 13.9502 12.0429 13.9628 12.3292 14.1015C13.7714 14.8001 15.2299 15.4681 16.6631 16.1847C19.949 17.8303 23.2332 19.476 26.4975 21.1613C29.6052 22.7674 32.6895 24.4202 35.7774 26.0641C36.3554 26.372 36.9045 26.7339 37.4609 27.0778C37.5869 27.1552 37.695 27.2633 37.8732 27.4091L37.8678 27.4109Z" fill="url(#paint1_linear_270_65)"/>
<path d="M39.4072 60.2758C39.6341 60.157 39.7835 60.0688 39.9384 59.9985C42.3169 58.9272 44.6972 57.8577 47.0775 56.7882C48.2622 56.2553 49.4577 55.7475 50.6263 55.1804C51.2277 54.8887 51.7858 54.8617 52.371 55.1623C53.3919 55.6845 54.4146 56.2048 55.4319 56.7306C58.3433 58.2358 61.2512 59.7447 64.1626 61.2499C64.3373 61.3399 64.5227 61.4048 64.7442 61.4984C64.7838 61.3525 64.8288 61.2463 64.8396 61.1383C64.8864 60.6251 64.9422 60.1138 64.962 59.5988C65.0034 58.4879 65.0359 57.3752 65.0485 56.2625C65.0791 53.8156 65.1025 51.3668 65.1133 48.9199C65.1133 48.6517 65.2339 48.5562 65.4428 48.4626C68.1201 47.2545 70.7957 46.0427 73.4677 44.8256C74.3085 44.442 75.1404 44.0387 75.9794 43.648C76.1469 43.5688 76.3233 43.5058 76.534 43.4193C76.5592 43.531 76.5934 43.6138 76.597 43.6984C76.6258 44.424 76.6654 45.1496 76.669 45.8753C76.6942 51.2498 76.7176 56.6262 76.7284 62.0007C76.732 63.4177 76.6906 64.8347 76.6618 66.2518C76.6528 66.6965 76.6132 67.1412 76.6006 67.5841C76.5952 67.8074 76.5034 67.9569 76.3107 68.0649C75.6895 68.416 75.081 68.7941 74.4508 69.1272C71.4691 70.6972 68.4785 72.2547 65.4968 73.8265C65.2843 73.9382 65.1331 73.9022 64.9476 73.8049C60.8352 71.6659 56.7174 69.5413 52.6105 67.3915C49.2291 65.6234 45.8603 63.8319 42.4915 62.0403C41.5931 61.5632 40.7144 61.0446 39.8286 60.5441C39.7079 60.4757 39.5945 60.3965 39.4036 60.274L39.4072 60.2758Z" fill="url(#paint2_linear_270_65)"/>
<path d="M58.4856 10.5094C58.3109 10.6156 58.1903 10.7039 58.0588 10.7651C56.9263 11.298 55.7956 11.8364 54.6558 12.3532C51.5878 13.7432 48.5089 15.1152 45.4462 16.5196C45.0195 16.7158 44.6972 16.7104 44.2812 16.4889C42.4825 15.5329 40.6622 14.6218 38.8563 13.6837C38.624 13.5631 38.4422 13.5595 38.2045 13.6801C36.5786 14.5102 34.9455 15.324 33.3125 16.1396C33.1252 16.2333 32.9254 16.3071 32.7345 16.3971C32.4842 16.5142 32.2448 16.5124 31.9927 16.3935C31.0006 15.92 29.9923 15.4753 29.011 14.9801C26.2958 13.6063 23.5915 12.2163 20.8853 10.8245C20.4099 10.5796 19.9508 10.3024 19.4197 10.0053C19.5907 9.90084 19.7023 9.82522 19.8194 9.7622C22.1276 8.51984 24.4269 7.26128 26.7478 6.04413C29.9185 4.38044 33.1036 2.74557 36.2851 1.1017C36.9495 0.757796 37.6265 0.433702 38.2909 0.0898023C38.5214 -0.0290321 38.732 -0.0308327 38.9571 0.0898023C39.7727 0.523728 40.5902 0.957653 41.4076 1.38798C45.1005 3.33974 48.797 5.28611 52.488 7.24507C54.3174 8.21555 56.1359 9.20584 57.9598 10.1907C58.1201 10.2772 58.2731 10.3816 58.4838 10.5112L58.4856 10.5094Z" fill="url(#paint3_linear_270_65)"/>
<path d="M19.3548 77.4132C22.025 76.3635 24.5547 75.1553 27.1061 73.9994C28.5663 73.3386 30.0301 72.6886 31.4904 72.026C31.7694 71.9 32.0485 71.8442 32.3402 71.9522C32.8984 72.1575 33.4691 72.3393 34.0093 72.5878C35.0914 73.0883 36.1555 73.6321 37.2304 74.147C37.5149 74.2839 37.812 74.3919 38.1073 74.4999C38.5304 74.6548 38.9589 74.6458 39.3784 74.4909C39.7727 74.3451 40.1635 74.1885 40.5506 74.0228C42.4303 73.2144 44.3119 72.4059 46.1862 71.5831C46.4311 71.4751 46.6147 71.4985 46.8398 71.6119C50.0303 73.2342 53.2262 74.8492 56.4186 76.4679C57.0343 76.7794 57.6447 77.1017 58.2569 77.4204C58.3667 77.478 58.473 77.5428 58.6494 77.6437C58.3685 77.7985 58.1507 77.9263 57.9274 78.0398C55.9828 79.0138 54.0401 79.9951 52.0883 80.9584C47.7239 83.11 43.3522 85.2509 38.9913 87.4079C38.6942 87.5555 38.4746 87.5447 38.1847 87.3989C34.49 85.5263 30.7845 83.6808 27.0935 81.8029C24.8518 80.6631 22.5994 79.5378 20.4424 78.2414C20.1615 78.0722 19.895 77.8813 19.6303 77.6887C19.5313 77.6166 19.4557 77.514 19.3566 77.415L19.3548 77.4132Z" fill="url(#paint4_linear_270_65)"/>
<defs>
<linearGradient id="paint0_linear_270_65" x1="76.7287" y1="-19.9759" x2="-14.3435" y2="-12.2801" gradientUnits="userSpaceOnUse">
<stop offset="0.0342727" stop-color="#CCA757"/>
<stop offset="0.195" stop-color="#DABA5C"/>
<stop offset="0.335" stop-color="#CDAA56"/>
<stop offset="0.5" stop-color="#715225"/>
<stop offset="0.64" stop-color="#9D7A40"/>
<stop offset="0.83" stop-color="#CFAC5B"/>
<stop offset="1" stop-color="#B99850"/>
</linearGradient>
<linearGradient id="paint1_linear_270_65" x1="76.7287" y1="-19.9759" x2="-14.3435" y2="-12.2801" gradientUnits="userSpaceOnUse">
<stop offset="0.0342727" stop-color="#CCA757"/>
<stop offset="0.195" stop-color="#DABA5C"/>
<stop offset="0.335" stop-color="#CDAA56"/>
<stop offset="0.5" stop-color="#715225"/>
<stop offset="0.64" stop-color="#9D7A40"/>
<stop offset="0.83" stop-color="#CFAC5B"/>
<stop offset="1" stop-color="#B99850"/>
</linearGradient>
<linearGradient id="paint2_linear_270_65" x1="76.7287" y1="-19.9759" x2="-14.3435" y2="-12.2801" gradientUnits="userSpaceOnUse">
<stop offset="0.0342727" stop-color="#CCA757"/>
<stop offset="0.195" stop-color="#DABA5C"/>
<stop offset="0.335" stop-color="#CDAA56"/>
<stop offset="0.5" stop-color="#715225"/>
<stop offset="0.64" stop-color="#9D7A40"/>
<stop offset="0.83" stop-color="#CFAC5B"/>
<stop offset="1" stop-color="#B99850"/>
</linearGradient>
<linearGradient id="paint3_linear_270_65" x1="76.7287" y1="-19.9759" x2="-14.3435" y2="-12.2801" gradientUnits="userSpaceOnUse">
<stop offset="0.0342727" stop-color="#CCA757"/>
<stop offset="0.195" stop-color="#DABA5C"/>
<stop offset="0.335" stop-color="#CDAA56"/>
<stop offset="0.5" stop-color="#715225"/>
<stop offset="0.64" stop-color="#9D7A40"/>
<stop offset="0.83" stop-color="#CFAC5B"/>
<stop offset="1" stop-color="#B99850"/>
</linearGradient>
<linearGradient id="paint4_linear_270_65" x1="76.7287" y1="-19.9759" x2="-14.3435" y2="-12.2801" gradientUnits="userSpaceOnUse">
<stop offset="0.0342727" stop-color="#CCA757"/>
<stop offset="0.195" stop-color="#DABA5C"/>
<stop offset="0.335" stop-color="#CDAA56"/>
<stop offset="0.5" stop-color="#715225"/>
<stop offset="0.64" stop-color="#9D7A40"/>
<stop offset="0.83" stop-color="#CFAC5B"/>
<stop offset="1" stop-color="#B99850"/>
</linearGradient>
</defs>
</svg>
