<svg width="78" height="78" viewBox="0 0 78 78" fill="none" xmlns="http://www.w3.org/2000/svg">
<rect x="0.9125" y="0.9125" width="76.175" height="76.175" stroke="url(#paint0_linear_270_204)" stroke-width="1.825"/>
<path d="M25.0735 21.5022C25.0728 22.8282 24.5415 24.0997 23.5964 25.0368C22.6514 25.974 21.37 26.5001 20.0342 26.4994C18.6984 26.4988 17.4175 25.9714 16.4734 25.0333C15.5293 24.0952 14.9993 22.8232 15 21.4972C15.0007 20.1712 15.532 18.8998 16.477 17.9626C17.422 17.0255 18.7034 16.4993 20.0392 16.5C21.3751 16.5007 22.6559 17.0281 23.6 17.9662C24.5441 18.9043 25.0741 20.1762 25.0735 21.5022ZM25.2246 30.2017H15.1511V61.5H25.2246V30.2017ZM41.1406 30.2017H31.1175V61.5H41.0399V45.0759C41.0399 35.9264 53.0525 35.0765 53.0525 45.0759V61.5H63V41.6761C63 26.252 45.2204 26.8269 41.0399 34.4015L41.1406 30.2017Z" fill="white"/>
<defs>
<linearGradient id="paint0_linear_270_204" x1="13.2826" y1="1.35038e-05" x2="72.1572" y2="11.0091" gradientUnits="userSpaceOnUse">
<stop stop-color="white"/>
<stop offset="0.505" stop-color="#7E5E2C"/>
<stop offset="1" stop-color="#E8BC4D"/>
</linearGradient>
</defs>
</svg>
