<svg width="76" height="88" viewBox="0 0 76 88" fill="none" xmlns="http://www.w3.org/2000/svg">
<path d="M11.2251 75.8876C10.0734 73.9093 8.99591 72.113 7.96955 70.2871C5.75116 66.3386 5.05075 60.7475 8.92048 56.4956C9.81349 55.5152 10.5664 54.4067 11.3907 53.363C13.8139 50.2964 15.3777 46.8819 15.7427 42.9442C15.9407 40.8108 16.5899 38.8311 18.1456 37.2506C18.9308 36.4537 18.8743 35.6122 18.353 34.6749C15.9339 30.3246 13.5431 25.958 11.1429 21.5982C10.9032 21.1626 10.6688 20.7243 10.6216 20.1701C11.8191 22.0189 13.0084 23.8718 14.2139 25.7139C16.0471 28.5162 17.8641 31.3292 19.7363 34.1031C21.2543 36.3525 22.779 36.753 25.2614 35.6782C26.9868 34.9298 27.2872 33.8591 26.0938 32.3797C21.3782 26.5338 16.6465 20.7014 11.9053 14.8771C8.0571 10.1491 4.18737 5.44 0.328425 0.721467C0.177569 0.536718 0.044223 0.337134 0.0657739 0C1.58915 1.64656 3.12599 3.28234 4.63455 4.94239C11.3867 12.3755 18.1321 19.8154 24.8775 27.2553C26.1167 28.6227 27.3478 29.9982 28.5789 31.3724C29.9272 32.8787 29.977 34.8475 28.6893 36.4698C27.3195 38.1946 25.4015 38.8824 23.3259 39.2222C20.0434 39.7589 19.4804 40.2066 19.2433 43.5523C19.0036 46.9345 17.7738 49.9498 16.4081 52.9746C14.7527 56.6399 15.4827 59.1967 18.6924 61.643C19.7821 62.4737 20.9351 63.241 21.9237 64.1809C23.637 65.8073 23.8997 68.7889 22.247 70.4705C20.896 71.846 19.207 72.9505 17.5166 73.9066C16.2343 74.6321 14.7204 74.9598 13.294 75.4156C12.607 75.6354 11.8837 75.7406 11.2237 75.8876H11.2251ZM12.3349 64.545C12.3403 62.8068 11.0944 61.7873 9.99802 62.1473C9.80541 62.2107 9.47676 62.3901 9.49023 62.4683C9.64647 63.3839 10.099 64.2767 9.63031 65.2247C10.0869 65.4458 10.7119 65.9718 10.9678 65.8288C11.5982 65.4796 12.0588 64.8228 12.3363 64.5437L12.3349 64.545Z" fill="url(#paint0_linear_270_66)"/>
<path d="M47.5531 36.0815C51.1992 39.0267 55.4474 39.148 59.5205 39.825C63.6058 40.5033 67.5819 41.3906 70.9627 44.027C76.9632 48.7065 76.6144 57.2252 73.9744 61.1858C73.9165 61.0226 73.8518 60.9107 73.8384 60.792C73.4572 57.476 71.4341 55.321 68.6419 53.9105C65.513 52.3286 62.271 50.968 59.0572 49.556C56.0279 48.225 53.0297 46.8522 50.5527 44.5853C48.1323 42.3697 47.2689 39.585 47.5517 36.0828L47.5531 36.0815Z" fill="url(#paint1_linear_270_66)"/>
<path d="M65.8619 31.4047C68.3712 34.2636 70.1047 37.2223 70.7149 40.8364C68.2985 36.9647 64.3425 37.0295 60.5415 36.7018C58.6652 36.54 56.7795 36.4388 54.9154 36.1839C50.5675 35.5919 46.9806 33.6096 44.2235 30.1506C42.0859 27.4684 39.9672 24.7672 37.734 22.1659C35.063 19.0548 31.7388 16.9579 27.5499 16.2283C30.0066 15.8359 33.6797 16.8783 36.2995 18.8593C37.7636 19.9651 39.2035 21.1707 40.3861 22.561C41.3922 23.7437 42.3728 23.946 43.8288 23.7518C49.036 23.0559 54.1005 23.6304 58.8376 26.051C59.8775 26.5824 61.4143 27.2175 61.6217 28.0738C62.0487 29.8296 61.7416 31.7661 61.7039 33.6285C61.6999 33.8645 61.5005 34.0951 61.3941 34.3297C61.0237 35.1429 61.1382 35.8873 61.9032 36.3606C62.6764 36.8393 63.4724 36.602 63.9398 35.8886C64.519 35.004 64.9594 34.0236 65.4053 33.0594C65.6006 32.6386 65.6612 32.1545 65.8605 31.4061L65.8619 31.4047Z" fill="url(#paint2_linear_270_66)"/>
<path d="M64.7574 80.6843C67.1441 76.4189 66.208 72.7158 64.0327 69.1611C62.31 66.3453 60.4351 63.6213 58.7366 60.7907C57.1782 58.1961 56.2798 55.406 56.9641 52.3178C57.0341 51.9996 57.1701 51.6948 57.391 51.0475C61.2513 53.5032 65.1978 55.5611 68.6177 58.2838C75.6877 63.9112 73.6538 76.0049 65.808 80.2555C65.5938 80.3715 65.3568 80.4429 64.7574 80.6857V80.6843Z" fill="url(#paint3_linear_270_66)"/>
<path d="M21.851 74.7656C25.225 71.5776 29.0126 69.2433 33.5087 68.5246C35.7823 68.1605 38.2498 68.1739 40.4965 68.6513C45.4546 69.7018 47.7565 73.2768 48.3922 78.1113C48.5431 79.2589 48.7276 80.4052 48.9606 81.5393C49.7809 85.5161 52.2646 87.0791 56.2246 86.1364C56.6772 86.0286 57.1257 85.8991 57.6254 85.7656C54.8992 88.3373 50.4544 88.0595 48.108 85.0104C46.9766 83.5392 46.2196 81.7645 45.3913 80.0775C44.3838 78.0263 43.4261 75.9631 41.4219 74.6537C39.7099 73.5357 37.8875 73.1298 35.9237 73.8755C34.0676 74.5808 33.0749 76.5483 33.6204 78.3473C34.1794 80.1921 36.3224 81.484 38.1677 81.0902C39.3476 80.838 40.2783 79.8401 40.4426 78.5833C40.5895 77.4613 40.2231 76.5578 39.1967 75.982C37.9926 75.305 36.9339 75.452 35.5937 76.5295C36.2227 75.22 37.303 74.9908 38.5273 75.1445C39.7638 75.2996 40.7053 75.924 41.1673 77.1161C42.1061 79.5407 40.475 82.2675 37.8929 82.5938C36.1459 82.815 34.5741 82.397 33.25 81.1914C33.0601 81.0174 32.8527 80.8596 32.683 80.6668C29.8086 77.4128 26.5033 74.949 21.8523 74.7669L21.851 74.7656Z" fill="url(#paint4_linear_270_66)"/>
<path d="M36.0974 33.0864C34.601 33.5907 33.4992 32.9866 32.4527 32.3514C29.6739 30.6644 28.0536 28.0833 27.0663 25.0639C26.3578 22.8982 25.9039 20.6946 26.3282 18.4008C29.189 18.5141 31.4492 20.1943 32.3947 22.8793C32.6924 23.7262 32.9739 24.5933 33.1315 25.4752C33.5639 27.9134 34.302 30.2153 35.7634 32.2489C35.9035 32.4444 35.9506 32.7061 36.0988 33.0864H36.0974Z" fill="url(#paint5_linear_270_66)"/>
<path d="M53.2465 49.5965C56.1263 53.0609 55.7006 58.0316 52.4263 60.9431C50.515 62.6422 48.2131 63.4042 45.7549 63.6779C42.0307 64.0919 38.2916 64.3765 34.7855 64.6961C36.4409 63.5417 38.6202 62.9726 40.8481 62.5451C42.7809 62.1743 44.7259 61.8641 46.656 61.4798C51.8403 60.4455 54.6352 56.1275 53.4984 50.9545C53.4109 50.5553 53.3489 50.1494 53.2465 49.5978V49.5965Z" fill="url(#paint6_linear_270_66)"/>
<path d="M31.2808 46.3897C29.3305 46.1496 28.5156 45.2798 28.6651 43.435C28.8038 41.7116 30.2612 40.1203 31.8802 39.9261C33.7013 39.7077 35.5748 40.8485 36.1581 42.5072C36.5285 43.5591 36.2241 44.4707 35.2933 44.9171C34.0151 45.5306 32.6237 45.9096 31.2808 46.3897ZM32.7827 43.4404C33.378 42.8875 34.166 42.4317 34.5094 41.7507C34.8165 41.1425 33.6703 40.2794 32.6318 40.3091C31.697 40.3361 30.8094 40.591 30.6128 41.686C30.4835 42.402 31.5071 43.1451 32.7827 43.4404Z" fill="url(#paint7_linear_270_66)"/>
<path d="M63.4684 19.2976C62.4528 23.8543 65.4416 26.4772 67.9752 29.359C67.2425 28.8007 66.5286 28.2154 65.773 27.6909C64.8072 27.0193 64.4449 27.2243 64.356 28.4245C64.2779 29.4925 64.2065 30.5632 64.0974 31.6286C64.061 31.9846 63.9182 32.3298 63.6529 32.729C64.3951 27.7556 62.6629 24.3033 57.5648 22.851C57.6645 22.7498 57.7628 22.6473 57.8625 22.5462C58.8767 22.8941 59.895 23.2339 60.9065 23.5927C62.5201 24.1671 62.5134 24.1617 62.675 22.5125C62.7774 21.4647 62.9458 20.4236 63.0845 19.3785C63.2125 19.3515 63.3404 19.3259 63.4684 19.2989V19.2976Z" fill="url(#paint8_linear_270_66)"/>
<defs>
<linearGradient id="paint0_linear_270_66" x1="75.7876" y1="-19.9759" x2="-14.6331" y2="-12.3906" gradientUnits="userSpaceOnUse">
<stop offset="0.0342727" stop-color="#CCA757"/>
<stop offset="0.195" stop-color="#DABA5C"/>
<stop offset="0.335" stop-color="#CDAA56"/>
<stop offset="0.5" stop-color="#715225"/>
<stop offset="0.64" stop-color="#9D7A40"/>
<stop offset="0.83" stop-color="#CFAC5B"/>
<stop offset="1" stop-color="#B99850"/>
</linearGradient>
<linearGradient id="paint1_linear_270_66" x1="75.7876" y1="-19.9759" x2="-14.6331" y2="-12.3906" gradientUnits="userSpaceOnUse">
<stop offset="0.0342727" stop-color="#CCA757"/>
<stop offset="0.195" stop-color="#DABA5C"/>
<stop offset="0.335" stop-color="#CDAA56"/>
<stop offset="0.5" stop-color="#715225"/>
<stop offset="0.64" stop-color="#9D7A40"/>
<stop offset="0.83" stop-color="#CFAC5B"/>
<stop offset="1" stop-color="#B99850"/>
</linearGradient>
<linearGradient id="paint2_linear_270_66" x1="75.7876" y1="-19.9759" x2="-14.6331" y2="-12.3906" gradientUnits="userSpaceOnUse">
<stop offset="0.0342727" stop-color="#CCA757"/>
<stop offset="0.195" stop-color="#DABA5C"/>
<stop offset="0.335" stop-color="#CDAA56"/>
<stop offset="0.5" stop-color="#715225"/>
<stop offset="0.64" stop-color="#9D7A40"/>
<stop offset="0.83" stop-color="#CFAC5B"/>
<stop offset="1" stop-color="#B99850"/>
</linearGradient>
<linearGradient id="paint3_linear_270_66" x1="75.7876" y1="-19.9759" x2="-14.6331" y2="-12.3906" gradientUnits="userSpaceOnUse">
<stop offset="0.0342727" stop-color="#CCA757"/>
<stop offset="0.195" stop-color="#DABA5C"/>
<stop offset="0.335" stop-color="#CDAA56"/>
<stop offset="0.5" stop-color="#715225"/>
<stop offset="0.64" stop-color="#9D7A40"/>
<stop offset="0.83" stop-color="#CFAC5B"/>
<stop offset="1" stop-color="#B99850"/>
</linearGradient>
<linearGradient id="paint4_linear_270_66" x1="75.7876" y1="-19.9759" x2="-14.6331" y2="-12.3906" gradientUnits="userSpaceOnUse">
<stop offset="0.0342727" stop-color="#CCA757"/>
<stop offset="0.195" stop-color="#DABA5C"/>
<stop offset="0.335" stop-color="#CDAA56"/>
<stop offset="0.5" stop-color="#715225"/>
<stop offset="0.64" stop-color="#9D7A40"/>
<stop offset="0.83" stop-color="#CFAC5B"/>
<stop offset="1" stop-color="#B99850"/>
</linearGradient>
<linearGradient id="paint5_linear_270_66" x1="75.7876" y1="-19.9759" x2="-14.6331" y2="-12.3906" gradientUnits="userSpaceOnUse">
<stop offset="0.0342727" stop-color="#CCA757"/>
<stop offset="0.195" stop-color="#DABA5C"/>
<stop offset="0.335" stop-color="#CDAA56"/>
<stop offset="0.5" stop-color="#715225"/>
<stop offset="0.64" stop-color="#9D7A40"/>
<stop offset="0.83" stop-color="#CFAC5B"/>
<stop offset="1" stop-color="#B99850"/>
</linearGradient>
<linearGradient id="paint6_linear_270_66" x1="75.7876" y1="-19.9759" x2="-14.6331" y2="-12.3906" gradientUnits="userSpaceOnUse">
<stop offset="0.0342727" stop-color="#CCA757"/>
<stop offset="0.195" stop-color="#DABA5C"/>
<stop offset="0.335" stop-color="#CDAA56"/>
<stop offset="0.5" stop-color="#715225"/>
<stop offset="0.64" stop-color="#9D7A40"/>
<stop offset="0.83" stop-color="#CFAC5B"/>
<stop offset="1" stop-color="#B99850"/>
</linearGradient>
<linearGradient id="paint7_linear_270_66" x1="75.7876" y1="-19.9759" x2="-14.6331" y2="-12.3906" gradientUnits="userSpaceOnUse">
<stop offset="0.0342727" stop-color="#CCA757"/>
<stop offset="0.195" stop-color="#DABA5C"/>
<stop offset="0.335" stop-color="#CDAA56"/>
<stop offset="0.5" stop-color="#715225"/>
<stop offset="0.64" stop-color="#9D7A40"/>
<stop offset="0.83" stop-color="#CFAC5B"/>
<stop offset="1" stop-color="#B99850"/>
</linearGradient>
<linearGradient id="paint8_linear_270_66" x1="75.7876" y1="-19.9759" x2="-14.6331" y2="-12.3906" gradientUnits="userSpaceOnUse">
<stop offset="0.0342727" stop-color="#CCA757"/>
<stop offset="0.195" stop-color="#DABA5C"/>
<stop offset="0.335" stop-color="#CDAA56"/>
<stop offset="0.5" stop-color="#715225"/>
<stop offset="0.64" stop-color="#9D7A40"/>
<stop offset="0.83" stop-color="#CFAC5B"/>
<stop offset="1" stop-color="#B99850"/>
</linearGradient>
</defs>
</svg>
