<svg width="54" height="323" viewBox="0 0 54 323" fill="none" xmlns="http://www.w3.org/2000/svg">
<rect x="1.6665" y="1.16675" width="51.3333" height="320.667" stroke="url(#paint0_linear_2_60)" stroke-width="2"/>
<path d="M32.74 29.9828C32.74 31.2201 32.3134 32.2512 31.46 33.0761C30.6209 33.8868 29.3338 34.2921 27.5987 34.2921H24.74V40.5001H22.7987V25.6308H27.5987C29.2769 25.6308 30.5498 26.0361 31.4174 26.8468C32.2992 27.6575 32.74 28.7028 32.74 29.9828ZM27.5987 32.6921C28.6796 32.6921 29.476 32.4575 29.988 31.9881C30.5 31.5188 30.756 30.8503 30.756 29.9828C30.756 28.1481 29.7036 27.2308 27.5987 27.2308H24.74V32.6921H27.5987ZM28.2921 57.6308V72.5001H26.3508V57.6308H28.2921ZM32.357 89.6308V91.2095H28.3036V104.5H26.3623V91.2095H22.2876V89.6308H32.357ZM20.0109 129.055C20.0109 127.604 20.338 126.303 20.9922 125.151C21.6464 123.985 22.5353 123.074 23.6589 122.42C24.7967 121.766 26.0553 121.439 27.4349 121.439C29.0562 121.439 30.4713 121.83 31.6802 122.612C32.8891 123.394 33.7709 124.504 34.3255 125.94H32.0002C31.5878 125.044 30.9904 124.354 30.2082 123.871C29.4402 123.387 28.5158 123.145 27.4349 123.145C26.3967 123.145 25.4651 123.387 24.6402 123.871C23.8153 124.354 23.1682 125.044 22.6989 125.94C22.2295 126.822 21.9949 127.86 21.9949 129.055C21.9949 130.235 22.2295 131.273 22.6989 132.169C23.1682 133.051 23.8153 133.734 24.6402 134.217C25.4651 134.701 26.3967 134.943 27.4349 134.943C28.5158 134.943 29.4402 134.708 30.2082 134.239C30.9904 133.755 31.5878 133.065 32.0002 132.169H34.3255C33.7709 133.592 32.8891 134.694 31.6802 135.476C30.4713 136.244 29.0562 136.628 27.4349 136.628C26.0553 136.628 24.7967 136.308 23.6589 135.668C22.5353 135.014 21.6464 134.111 20.9922 132.959C20.338 131.807 20.0109 130.505 20.0109 129.055ZM33.0464 153.631V168.5H31.105V161.759H23.5317V168.5H21.5904V153.631H23.5317V160.159H31.105V153.631H33.0464ZM26.0635 185.631C27.6848 185.631 29.0857 185.937 30.2661 186.548C31.4608 187.145 32.371 188.006 32.9968 189.129C33.6368 190.253 33.9568 191.576 33.9568 193.097C33.9568 194.619 33.6368 195.942 32.9968 197.065C32.371 198.175 31.4608 199.028 30.2661 199.625C29.0857 200.209 27.6848 200.5 26.0635 200.5H21.4341V185.631H26.0635ZM26.0635 198.9C27.9835 198.9 29.4484 198.395 30.4581 197.385C31.4679 196.361 31.9728 194.932 31.9728 193.097C31.9728 191.249 31.4608 189.805 30.4368 188.767C29.427 187.729 27.9692 187.209 26.0635 187.209H23.3755V198.9H26.0635ZM25.4484 219.209V224.18H30.867V225.78H25.4484V230.9H31.507V232.5H23.507V217.609H31.507V219.209H25.4484ZM20.0109 257.055C20.0109 255.604 20.338 254.303 20.9922 253.151C21.6464 251.985 22.5353 251.074 23.6589 250.42C24.7967 249.766 26.0553 249.439 27.4349 249.439C29.0562 249.439 30.4713 249.83 31.6802 250.612C32.8891 251.394 33.7709 252.504 34.3255 253.94H32.0002C31.5878 253.044 30.9904 252.354 30.2082 251.871C29.4402 251.387 28.5158 251.145 27.4349 251.145C26.3967 251.145 25.4651 251.387 24.6402 251.871C23.8153 252.354 23.1682 253.044 22.6989 253.94C22.2295 254.822 21.9949 255.86 21.9949 257.055C21.9949 258.235 22.2295 259.273 22.6989 260.169C23.1682 261.051 23.8153 261.734 24.6402 262.217C25.4651 262.701 26.3967 262.943 27.4349 262.943C28.5158 262.943 29.4402 262.708 30.2082 262.239C30.9904 261.755 31.5878 261.065 32.0002 260.169H34.3255C33.7709 261.592 32.8891 262.694 31.6802 263.476C30.4713 264.244 29.0562 264.628 27.4349 264.628C26.0553 264.628 24.7967 264.308 23.6589 263.668C22.5353 263.014 21.6464 262.111 20.9922 260.959C20.338 259.807 20.0109 258.505 20.0109 257.055ZM30.6544 296.5L24.5317 289.716V296.5H22.5904V281.631H24.5317V288.521L30.6757 281.631H33.129L26.3877 289.076L33.193 296.5H30.6544Z" fill="#D9D9D9"/>
<defs>
<linearGradient id="paint0_linear_2_60" x1="9.74863" y1="0.166804" x2="51.3726" y2="1.45331" gradientUnits="userSpaceOnUse">
<stop stop-color="white"/>
<stop offset="0.505" stop-color="#7E5E2C"/>
<stop offset="1" stop-color="#E8BC4D"/>
</linearGradient>
</defs>
</svg>
