<svg width="78" height="78" viewBox="0 0 78 78" fill="none" xmlns="http://www.w3.org/2000/svg">
<rect x="0.975" y="0.975" width="76.05" height="76.05" stroke="url(#paint0_linear_270_194)" stroke-width="1.95"/>
<path d="M56.9493 24.0425H21.0515C20.2581 24.0425 19.4973 24.3577 18.9362 24.9187C18.3752 25.4797 18.0601 26.2406 18.0601 27.034V50.9658C18.0601 51.7592 18.3752 52.5201 18.9362 53.0811C19.4973 53.6421 20.2581 53.9573 21.0515 53.9573H56.9493C57.7427 53.9573 58.5035 53.6421 59.0646 53.0811C59.6256 52.5201 59.9407 51.7592 59.9407 50.9658V27.034C59.9407 26.2406 59.6256 25.4797 59.0646 24.9187C58.5035 24.3577 57.7427 24.0425 56.9493 24.0425ZM53.6586 27.034L39.0004 37.1751L24.3422 27.034H53.6586ZM21.0515 50.9658V28.3951L38.1478 40.2264C38.3982 40.4001 38.6957 40.4931 39.0004 40.4931C39.3051 40.4931 39.6026 40.4001 39.853 40.2264L56.9493 28.3951V50.9658H21.0515Z" fill="white"/>
<defs>
<linearGradient id="paint0_linear_270_194" x1="78" y1="-17.8044" x2="-14.9204" y2="-8.79574" gradientUnits="userSpaceOnUse">
<stop offset="0.0342727" stop-color="#CCA757"/>
<stop offset="0.195" stop-color="#DABA5C"/>
<stop offset="0.335" stop-color="#CDAA56"/>
<stop offset="0.5" stop-color="#715225"/>
<stop offset="0.64" stop-color="#9D7A40"/>
<stop offset="0.83" stop-color="#CFAC5B"/>
<stop offset="1" stop-color="#B99850"/>
</linearGradient>
</defs>
</svg>
