<svg width="290" height="611" viewBox="0 0 290 611" fill="none" xmlns="http://www.w3.org/2000/svg">
<rect x="0.5" y="0.5" width="289" height="610" fill="#1C160E" stroke="url(#paint0_linear_270_170)"/>
<mask id="mask0_270_170" style="mask-type:alpha" maskUnits="userSpaceOnUse" x="0" y="0" width="290" height="611">
<rect x="0.5" y="0.5" width="289" height="610" fill="#1C160E" stroke="url(#paint1_linear_270_170)"/>
</mask>
<g mask="url(#mask0_270_170)">
<g style="mix-blend-mode:overlay" opacity="0.18">
<path d="M235.028 1101.92C214.699 1102.29 193.462 1101.37 172.338 1098.91C158.463 1097.3 144.68 1094.82 130.897 1092.47C107.762 1088.51 85.1036 1082.48 62.8093 1075.27C9.7553 1058.12 -39.6625 1033.54 -85.4215 1001.63C-119.988 977.535 -151.486 949.955 -179.871 918.855C-203.915 892.501 -225.425 864.182 -244.061 833.741C-264.98 799.564 -282.184 763.638 -295.445 725.805C-305.319 697.657 -312.841 668.93 -318.227 639.613C-320.852 625.317 -322.807 610.931 -324.307 596.511C-325.875 581.353 -327.022 566.138 -327 550.866C-326.977 538.342 -326.943 525.806 -326.613 513.294C-326.432 506.231 -325.727 499.169 -325.079 492.117C-324.386 484.533 -323.466 476.97 -322.682 469.386C-321.318 456.192 -319 443.157 -316.455 430.156C-307.376 383.784 -292.479 339.331 -272.059 296.751C-263.117 278.096 -252.992 260.054 -242.129 242.409C-224.926 214.499 -205.188 188.497 -183.348 164.096C-159.918 137.924 -134.271 114.091 -106.307 92.7673C-90.6939 80.8564 -74.6039 69.6722 -57.8888 59.385C-41.4806 49.2908 -24.5724 40.1277 -7.19833 31.8048C15.2778 21.0407 38.3788 11.8549 62.0253 4.07706C88.6375 -4.68864 115.886 -10.8428 143.476 -15.6798C162.304 -18.984 181.258 -20.6417 200.302 -21.868C220.994 -23.1965 241.698 -23.3101 262.39 -22.4471C280.718 -21.6864 299.024 -20.267 317.194 -17.6441C327.795 -16.1113 338.295 -13.8858 348.806 -11.8079C357.532 -10.082 366.271 -8.32208 374.907 -6.19879C382.133 -4.42748 389.19 -2.02032 396.371 -0.0673402C409.723 3.5434 422.631 8.4372 435.597 13.1607C455.595 20.4389 474.867 29.3636 493.809 39.0149C502.536 43.4546 511.206 48.0645 519.649 53.0264C536.398 62.8708 552.761 73.351 568.374 84.9326C580.327 93.8005 592.031 102.975 603.36 112.66C621.609 128.273 638.779 144.975 654.858 162.768C674.232 184.217 692.072 206.903 707.866 231.145C712.218 237.833 716.229 244.736 720.332 251.594C724.059 257.817 727.911 263.982 731.331 270.375C737.751 282.377 744.148 294.39 749.716 306.823C762.659 335.697 773.374 365.344 781.499 395.944C786.726 415.611 790.805 435.504 793.839 455.601C795.521 466.706 796.487 477.936 797.714 489.108C799.827 508.263 800.123 527.498 799.964 546.755C799.85 560.733 799.123 574.676 797.896 588.619C796.748 601.643 795.248 614.621 793.18 627.509C790.657 643.269 787.692 658.949 783.692 674.426C780.385 687.256 777.01 700.064 772.851 712.645C763.045 742.337 751.319 771.246 736.637 798.883C731.615 808.33 725.967 817.436 720.786 826.803C711.98 842.734 701.537 857.574 690.867 872.267C682.22 884.178 672.743 895.419 663.255 906.66C651.88 920.138 639.529 932.684 626.95 945.015C619.166 952.646 610.883 959.708 602.713 966.918C591.793 976.536 580.123 985.176 568.578 993.976C561.658 999.256 554.443 1004.17 547.136 1008.93C522.751 1024.8 497.502 1039.11 470.992 1051.2C455.289 1058.37 439.278 1064.7 423.063 1070.63C404.769 1077.32 386.054 1082.47 367.168 1087.07C355.703 1089.87 344.056 1091.87 332.454 1094.08C300.569 1100.13 268.355 1102.28 234.982 1101.95L235.028 1101.92ZM756.466 544.382C756.159 533.618 755.943 523.819 755.591 514.02C755.364 507.491 755.25 500.94 754.546 494.456C753.227 482.375 752.296 470.237 749.932 458.281C747.785 447.426 746.58 436.401 743.785 425.648C739.535 409.32 736.149 392.754 730.092 376.926C729.899 376.415 729.774 375.881 729.604 375.37C724.365 358.917 718.241 342.817 711.139 327.079C709.275 322.946 707.844 318.631 705.378 314.782C704.9 314.033 704.798 313.056 704.4 312.25C703.128 309.661 701.832 307.073 700.469 304.529C699.605 302.94 698.514 301.463 697.651 299.874C694.776 294.617 692.06 289.269 689.095 284.068C685.583 277.926 682.106 271.737 678.163 265.856C674.129 259.838 671.925 252.696 666.653 247.473C666.403 247.223 666.255 246.871 666.073 246.553C660.073 236.561 652.699 227.568 645.335 218.587C639.12 211.002 632.666 203.622 626.416 196.082C620.973 189.508 615.462 183.024 609.269 177.12C601.247 169.478 593.497 161.564 585.555 153.832C583.214 151.561 580.691 149.472 578.18 147.383C572.18 142.387 566.181 137.402 560.113 132.508C556.306 129.431 552.374 126.513 548.477 123.549C546.454 122.017 544.239 120.699 542.375 119.008C539.523 116.43 536.398 114.307 533.103 112.354C529.671 110.31 526.342 108.107 523.012 105.893C519.092 103.282 515.297 100.466 511.32 97.9676C507.32 95.4583 503.138 93.2669 499.07 90.8711C494.071 87.9302 489.207 84.7283 484.094 82.0032C477.526 78.506 470.799 75.3381 464.095 72.1134C458.538 69.4451 452.914 66.8903 447.312 64.3015C444.676 63.0865 442.028 61.883 439.369 60.7021C435.881 59.1579 432.438 57.5115 428.87 56.1716C422.927 53.9348 416.893 51.9364 410.916 49.7904C406.984 48.3824 403.132 46.7247 399.155 45.4757C393.44 43.6817 387.599 42.3191 381.895 40.4797C369.793 36.5737 357.646 32.8949 345.044 30.8397C333.761 29.0002 322.58 26.5136 311.285 24.7309C292.422 21.7561 273.423 20.1778 254.333 19.8371C236.891 19.5192 219.449 19.2694 202.052 20.7682C191.564 21.6766 181.076 22.6531 170.61 23.7885C156.509 25.3214 142.68 28.5234 128.772 31.1803C125.204 31.8616 121.579 32.3612 118.091 33.3263C104.966 36.9711 91.8192 40.5251 78.8199 44.59C68.9454 47.6671 59.1845 51.1643 49.5828 55.0135C38.1288 59.6007 26.7317 64.4264 15.6073 69.763C1.19896 76.6665 -13.0048 83.9675 -26.6973 92.2677C-39.5944 100.091 -52.2642 108.243 -64.5703 116.952C-75.9788 125.025 -86.9101 133.757 -97.614 142.773C-113.602 156.262 -128.806 170.591 -142.975 185.943C-166.565 211.479 -187.848 238.798 -205.847 268.626C-219.187 290.733 -231.312 313.442 -241.356 337.242C-255.867 371.646 -266.662 407.174 -273.514 443.872C-276.446 459.575 -278.798 475.381 -280.195 491.288C-281.275 503.574 -281.922 515.916 -282.207 528.259C-282.457 539.136 -281.957 550.037 -281.729 560.914C-281.502 571.985 -280.729 583.022 -279.514 594.047C-277.445 612.816 -274.502 631.437 -270.548 649.9C-264.537 678.002 -256.015 705.355 -245.402 732.038C-230.982 768.282 -212.335 802.278 -190.257 834.422C-175.314 856.178 -158.656 876.57 -140.544 895.714C-114.25 923.51 -85.4101 948.388 -53.5482 969.666C-43.8896 976.115 -34.1515 982.485 -24.1179 988.333C-11.7322 995.566 0.812612 1002.57 13.8687 1008.51C26.7544 1014.38 39.6969 1020.17 52.8894 1025.29C66.9228 1030.74 81.1834 1035.67 95.7053 1039.79C106.716 1042.91 117.659 1046.25 128.954 1048.25C139.498 1050.11 150.032 1052.13 160.6 1053.87C176.565 1056.49 192.643 1058.38 208.802 1058.95C236.039 1059.9 263.287 1060.16 290.445 1057.03C297.842 1056.18 305.251 1055.38 312.603 1054.23C322.284 1052.72 331.932 1050.98 341.567 1049.15C349.056 1047.73 356.623 1046.49 363.93 1044.36C377.168 1040.5 390.497 1036.87 403.451 1032.09C411.791 1029 420.313 1026.38 428.597 1023.15C440.608 1018.46 452.323 1013.06 463.856 1007.26C467.095 1005.63 470.492 1004.31 473.731 1002.69C476.151 1001.47 478.446 1000.01 480.776 998.62C481.867 997.973 482.912 997.246 483.992 996.588C490.798 992.455 498.582 990.047 504.706 984.734C504.843 984.62 505.025 984.552 505.184 984.472C514.547 979.965 522.819 973.663 531.466 968.054C540.739 962.036 549.352 954.985 558.124 948.229C564.01 943.698 569.703 938.907 575.475 934.217C576.18 933.65 576.862 933.048 577.521 932.423C584.793 925.599 592.44 919.161 599.292 911.871C606.872 903.81 615.212 896.486 622.303 887.925C629.473 879.261 637.075 870.95 644.245 862.275C649.79 855.553 655.039 848.593 660.244 841.598C663.369 837.386 665.766 832.64 669.232 828.643C669.584 828.245 669.846 827.723 670.027 827.223C671.186 824.101 673.186 821.524 675.311 819.026C676.016 818.197 676.766 817.322 677.129 816.335C678.402 812.86 680.515 809.965 682.811 807.115C683.936 805.729 684.708 804.026 685.47 802.38C688.004 796.964 692.015 792.365 694.072 786.677C694.367 785.859 695.14 785.212 695.606 784.44C696.265 783.361 697.014 782.294 697.435 781.113C698.594 777.843 700.139 774.788 702.128 771.938C702.946 770.769 703.389 769.338 703.98 768.01C704.798 766.193 705.594 764.365 706.4 762.537C710.832 752.386 715.491 742.337 719.604 732.061C723.115 723.307 726.024 714.314 729.149 705.412C732.819 694.966 736.444 684.497 738.956 673.688C740.558 666.795 742.171 659.903 743.773 653C744.796 648.583 745.921 644.189 746.785 639.738C747.694 635.105 748.228 630.404 749.125 625.783C751.557 613.293 753.102 600.667 754.205 588.029C755.489 573.211 755.807 558.314 756.5 544.394L756.466 544.382Z" fill="white"/>
<path d="M238.289 100.386C251.902 100.568 263.469 105.462 272.992 115.079C283.343 125.525 293.525 136.142 303.876 146.599C321 163.892 338.09 181.219 355.385 198.342C396.167 238.718 436.869 279.163 477.958 319.222C501.354 342.033 525.433 364.163 549.204 386.588C587.111 422.344 625.041 458.088 662.948 493.855C665.459 496.216 667.959 498.601 670.357 501.076C691.004 522.434 690.401 555.714 669.993 576.209C660.13 586.121 650.256 596.023 640.359 605.901C596.395 649.775 552.42 693.626 508.468 737.523C479.299 766.658 450.187 795.828 421.052 824.998C407.7 838.362 394.406 851.772 381.031 865.102C362.384 883.69 343.567 902.118 325.023 920.808C309.808 936.147 294.877 951.771 279.798 967.259C277.389 969.734 275.003 972.221 272.492 974.594C253.152 992.886 222.301 992.784 202.95 974.106C197.723 969.064 192.621 963.887 187.496 958.743C166.463 937.658 145.441 916.561 124.397 895.487C99.637 870.689 74.8315 845.924 50.0828 821.103C16.6187 787.539 -16.8114 753.941 -50.2642 720.355C-73.7175 696.805 -97.1708 673.256 -120.613 649.707C-143.418 626.805 -166.235 603.891 -189.03 580.978C-191.973 578.014 -194.893 575.028 -197.802 572.031C-215.971 553.193 -215.96 523.433 -197.597 504.653C-189.859 496.739 -181.837 489.086 -173.792 481.467C-140.578 449.992 -107.443 418.438 -74.0357 387.156C-17.6977 334.392 37.5494 280.514 91.9783 225.786C119.511 198.103 147.225 170.603 174.86 143.011C184.11 133.768 193.348 124.515 202.597 115.272C209.858 108.028 218.438 103.191 228.585 101.374C231.778 100.806 235.062 100.704 238.3 100.386H238.289ZM298.649 551.467C299.558 550.468 300.433 549.344 301.456 548.379C305.797 544.246 310.16 540.147 314.546 536.059C332.67 519.232 351.465 503.279 372.725 490.437C373.032 490.255 373.327 490.028 373.645 489.858C374.85 489.165 375.452 488.109 375.497 486.735C375.543 485.464 375.577 484.192 375.588 482.92C375.611 471.85 375.645 460.779 375.634 449.697C375.634 447.517 375.566 445.337 375.384 443.168C373.929 426.102 359.851 413.056 342.636 412.885C332.466 412.783 322.296 412.795 312.126 412.795C310.705 412.795 309.296 413.022 308.046 413.124C307.603 413.896 307.296 414.35 307.058 414.827C298.74 432.097 287.934 447.744 275.957 462.641C264.117 477.379 251.049 491.016 238.334 504.971C237.743 505.618 237.016 506.152 236.187 506.89C235.221 506.072 234.334 505.47 233.641 504.698C223.46 493.344 213.04 482.193 203.222 470.532C189.03 453.682 176.724 435.515 167.27 415.531C166.895 414.736 166.406 413.987 166.099 413.43C165.44 413.203 165.099 412.999 164.759 412.999C155.861 412.84 146.964 412.579 138.067 412.59C132.897 412.59 128.011 414.055 123.602 416.825C112.807 423.593 106.853 433.255 106.659 446.086C106.478 457.883 106.614 469.681 106.603 481.478C106.603 484.01 106.603 486.542 106.603 489.381C120.84 497.863 134.192 507.559 146.885 518.153C166.179 534.243 181.167 548.197 183.462 552.24C179.474 555.873 175.485 559.563 171.44 563.197C167.395 566.842 163.327 570.475 159.202 574.029C155.077 577.583 150.907 581.091 146.657 584.498C142.407 587.904 138.112 591.265 133.726 594.478C129.34 597.703 124.852 600.791 120.318 603.812C115.795 606.809 111.159 609.637 106.625 612.509C106.625 624.977 106.568 637.137 106.671 649.287C106.693 651.614 107.182 653.976 107.773 656.247C111.5 670.508 125.533 681.942 140.135 681.488C149.396 681.193 158.657 681.25 167.917 681.113C168.622 681.113 169.326 680.932 170.258 680.796C172.781 676.424 175.224 671.984 177.871 667.681C180.621 663.196 183.485 658.779 186.462 654.442C189.337 650.252 192.325 646.142 195.405 642.099C198.484 638.057 201.7 634.117 204.95 630.211C208.199 626.305 211.506 622.433 214.87 618.63C218.358 614.69 221.858 610.749 225.528 606.98C228.994 603.414 231.903 599.236 236.334 596.17C241.448 601.734 246.379 607.048 251.254 612.407C256.14 617.778 261.072 623.115 265.821 628.61C270.446 633.969 275.014 639.397 279.332 644.995C283.764 650.74 288.048 656.61 292.093 662.64C296.127 668.635 299.786 674.88 303.444 680.761C303.99 680.943 304.16 681.045 304.331 681.045C317.228 681.045 330.125 681.295 342.999 680.954C352.044 680.716 359.907 677.083 366.237 670.463C372.441 663.968 375.316 656.122 375.384 647.232C375.452 637.069 375.418 626.896 375.384 616.733C375.384 615.484 375.122 614.235 374.963 612.805C360.816 604.527 347.613 594.933 334.943 584.611C321.796 573.904 302.092 556.032 298.627 551.456L298.649 551.467ZM239.164 168.877C237.698 170.239 236.357 171.431 235.084 172.703C228.517 179.232 221.971 185.784 215.426 192.335C165.509 242.306 115.591 292.266 65.6956 342.26C64.9797 342.976 64.5366 343.941 63.923 344.849C64.8548 345.86 65.5479 346.7 66.3319 347.449C77.5245 358.338 88.7171 369.205 99.9211 380.082C100.035 380.196 100.239 380.23 100.41 380.287C100.58 380.343 100.762 380.366 101.012 380.411C101.455 380.23 101.978 380.071 102.444 379.81C114.659 373.042 127.897 370.42 141.703 370.045C144.976 369.954 148.237 369.977 151.509 369.829C152.521 369.784 153.521 369.375 154.839 369.057C154.839 367.218 154.839 365.605 154.839 363.993C154.873 349.118 158.873 335.323 166.372 322.526C173.349 310.638 182.496 300.646 193.257 292.085C199.12 287.418 205.506 283.648 212.472 280.9C221.006 277.517 229.869 275.666 239.061 276.359C251.027 277.256 262.288 280.696 272.378 287.259C289.672 298.511 302.865 313.454 311.66 332.143C316.444 342.294 318.625 353.081 319.16 364.254C319.239 365.98 318.637 367.887 320.25 369.716C326.034 369.716 332.011 369.772 337.988 369.704C350.942 369.545 363.191 372.418 374.816 378.072C375.963 378.629 377.088 379.208 378.259 379.696C379.35 380.15 380.395 379.957 381.315 379.197C381.872 378.731 382.429 378.266 382.952 377.755C393.076 367.853 403.201 357.952 413.291 348.017C414.143 347.177 414.734 346.075 415.393 345.167C407.144 334.255 249.527 176.496 239.175 168.888L239.164 168.877ZM413.393 744.619C412.723 743.677 412.382 743.03 411.882 742.541C402.735 733.458 393.587 724.374 384.383 715.336C383.383 714.348 382.099 713.656 381.168 712.974C380.418 713.167 380.043 713.213 379.713 713.372C378.565 713.917 377.429 714.484 376.293 715.052C364.907 720.729 352.953 724.034 340.124 723.875C334.136 723.795 328.136 723.852 322.137 723.909C320.944 723.92 319.739 724.261 318.216 724.499C318.375 726.77 318.489 728.734 318.671 730.71C319.296 737.625 318.785 744.494 317.603 751.307C315.228 764.989 309.501 777.207 301.263 788.3C293.627 798.576 284.741 807.592 274.014 814.699C264.14 821.251 253.277 825.236 241.55 826.554C228.528 828.007 216.222 825.146 204.859 818.776C186.769 808.647 173.201 794.068 163.588 775.776C159.588 768.169 157.088 760.05 155.702 751.557C154.43 743.779 154.668 736.001 155.111 728.201C155.18 726.963 155.111 725.725 155.111 724.136C153.589 723.943 152.202 723.659 150.805 723.625C146.271 723.489 141.726 723.534 137.18 723.33C123.318 722.716 110.318 719.219 98.5575 711.646C97.8189 711.169 97.0008 710.851 95.9099 710.306C85.0355 720.605 74.536 731.13 63.7866 741.383C63.0253 742.11 62.423 743.007 61.6844 743.904C62.2185 744.631 62.5708 745.267 63.0707 745.766C120.556 803.595 178.053 861.423 235.562 919.229C235.925 919.593 236.493 919.752 237.152 920.092C237.857 919.627 238.686 919.241 239.311 918.639C297.786 861.31 356.589 804.321 413.37 744.642L413.393 744.619ZM-141.305 538.069C-139.498 539.965 -138.18 541.43 -136.782 542.815C-123.76 555.725 -110.704 568.601 -97.6935 581.523C-71.9221 607.105 -46.1735 632.709 -20.4135 658.291C-7.14147 671.462 6.13055 684.633 19.4253 697.782C20.4025 698.758 21.5048 699.61 22.7547 700.7C36.9358 686.7 50.8554 672.961 64.5479 659.449C64.3888 654.43 64.2298 649.9 64.0934 645.369C63.957 640.691 64.4116 635.979 63.7184 630.995C62.3322 630.995 61.264 630.881 60.2414 631.017C57.7301 631.358 55.2416 631.846 52.7304 632.244C41.4469 634.049 30.2884 633.356 19.3003 630.37C-4.47113 623.909 -28.7767 603.642 -40.2079 580.91C-40.776 579.774 -41.3442 578.639 -41.8555 577.481C-48.5711 562.209 -49.4801 546.63 -44.1622 530.779C-41.5942 523.149 -37.7081 516.189 -32.856 509.774C-24.6747 498.953 -14.8342 489.892 -3.45982 482.523C11.4371 472.883 27.7658 468.193 45.5262 468.92C50.2192 469.113 54.878 470.033 59.5596 470.578C60.7754 470.725 62.0026 470.759 63.7525 470.873C64.5707 457.418 63.0366 444.167 65.2752 431.144C49.1056 415.077 33.1405 399.215 17.1527 383.375C16.6868 382.909 15.9937 382.671 15.1187 382.171C-36.9354 434.05 -88.8644 485.804 -141.293 538.058L-141.305 538.069ZM453.63 700.223C454.346 699.917 454.959 699.837 455.311 699.485C508.809 646.153 562.283 592.787 615.757 539.42C616.121 539.057 616.257 538.478 616.655 537.717C565.237 486.236 513.786 434.72 462.322 383.216C461.834 382.728 461.152 382.433 460.459 381.99C459.777 382.421 459.084 382.705 458.595 383.193C444.607 396.932 430.631 410.694 416.666 424.467C416.166 424.955 415.893 425.659 415.689 425.989C416.359 430.792 417.313 435.254 417.541 439.75C417.961 448.084 417.938 456.441 418.154 464.776C418.2 466.729 417.723 468.772 418.802 470.589C420.472 471.407 422.052 470.714 423.62 470.498C436.335 468.784 448.971 468.863 461.447 472.281C467.061 473.825 472.515 475.835 477.663 478.571C496.207 488.427 511.286 501.996 521.581 520.436C527.933 531.813 530.626 544.132 529.308 557.145C528.103 569.124 523.694 579.979 516.82 589.823C508.286 602.029 497.696 612.123 485.094 620.06C479.39 623.66 473.31 626.487 466.913 628.633C452.8 633.368 438.403 633.697 423.836 631.483C422.245 631.244 420.643 631.029 419.177 630.824C417.632 632.868 418.177 634.935 418.166 636.876C418.12 645.04 418.234 653.215 416.7 661.288C416.393 662.867 416.87 664.138 417.916 665.263C418.529 665.921 419.154 666.591 419.791 667.227C430.12 677.446 440.437 687.665 450.789 697.861C451.664 698.724 452.709 699.44 453.63 700.189V700.223ZM236.164 646.63C234.55 648.446 233.289 649.741 232.164 651.137C229.426 654.532 226.71 657.939 224.062 661.391C215.108 673.074 206.768 685.167 200.064 698.304C194.859 708.523 190.712 719.083 189.132 730.585C187.507 742.417 189.803 753.317 195.984 763.422C201.154 771.882 207.847 778.989 215.756 784.951C219.108 787.483 222.721 789.583 226.653 791.025C233.55 793.557 240.55 793.694 247.402 790.969C250.243 789.844 253.072 788.425 255.538 786.631C265.833 779.148 273.991 769.747 279.73 758.347C283.127 751.602 284.718 744.381 284.741 736.807C284.752 730.392 283.639 724.17 281.843 718.05C278.696 707.342 273.696 697.498 267.969 687.983C259.606 674.096 249.731 661.334 238.971 649.23C238.277 648.446 237.425 647.788 236.175 646.618L236.164 646.63ZM235.925 456.714C237.402 455.465 238.141 454.977 238.721 454.329C251.311 440.193 262.742 425.216 271.912 408.593C276.662 399.987 280.616 391.051 283.002 381.479C287.263 364.413 284.434 348.755 273.776 334.619C270.048 329.679 266.06 324.979 261.378 320.914C259.049 318.904 256.651 316.906 254.038 315.305C243.993 309.139 233.596 308.356 222.994 313.851C220.426 315.18 217.903 316.679 215.608 318.438C208.211 324.116 201.859 330.804 196.78 338.661C194.007 342.953 191.939 347.552 190.541 352.479C187.735 362.415 188.587 372.236 191.178 382.024C194.166 393.333 199.257 403.756 205.154 413.782C213.54 428.055 223.471 441.249 233.994 454C234.573 454.704 235.05 455.476 235.914 456.691L235.925 456.714ZM132.897 551.774C131.238 550.071 130.306 548.992 129.249 548.061C118.534 538.796 107.455 529.996 95.5918 522.195C89.3648 518.096 82.8424 514.508 76.0701 511.397C68.6273 507.968 60.9459 505.164 52.8213 503.937C43.0036 502.461 33.2314 502.711 23.9933 506.89C10.6076 512.953 -0.0850034 522.275 -8.22094 534.481C-9.51632 536.423 -10.4368 538.637 -11.3685 540.794C-12.8344 544.155 -13.4025 547.709 -13.4025 551.388C-13.3797 558.394 -10.7208 564.491 -6.84602 570.089C-0.448626 579.309 7.63047 586.814 17.3004 592.514C25.8227 597.533 35.129 599.384 44.9808 598.895C53.2303 598.487 61.0822 596.42 68.7523 593.536C78.3086 589.948 87.3081 585.27 95.8758 579.729C107.784 572.019 118.954 563.333 129.783 554.193C130.613 553.489 131.488 552.853 132.885 551.774H132.897ZM349.374 551.467C350.771 552.751 351.658 553.659 352.635 554.442C357.589 558.416 362.498 562.459 367.555 566.308C378.986 574.994 390.872 582.999 403.803 589.335C411.814 593.263 420.109 596.431 428.892 598.225C443.982 601.314 457.732 598.259 470.152 589.176C476.049 584.861 481.242 579.808 485.81 574.108C488.889 570.271 491.457 566.115 493.207 561.482C495.809 554.567 495.821 547.686 493.162 540.771C491.514 536.491 489.151 532.63 486.31 529.076C480.481 521.775 473.606 515.621 465.697 510.659C458.175 505.936 449.994 503.188 441.085 502.734C433.722 502.359 426.631 503.801 419.666 506.004C409.564 509.206 400.223 514.02 391.224 519.539C377.1 528.202 364.134 538.421 351.59 549.197C350.931 549.764 350.362 550.457 349.385 551.467H349.374Z" fill="white"/>
</g>
</g>
<defs>
<linearGradient id="paint0_linear_270_170" x1="49.384" y1="0.00010578" x2="274.16" y2="19.9495" gradientUnits="userSpaceOnUse">
<stop stop-color="white"/>
<stop offset="0.505" stop-color="#7E5E2C"/>
<stop offset="1" stop-color="#E8BC4D"/>
</linearGradient>
<linearGradient id="paint1_linear_270_170" x1="49.384" y1="0.00010578" x2="274.16" y2="19.9495" gradientUnits="userSpaceOnUse">
<stop stop-color="white"/>
<stop offset="0.505" stop-color="#7E5E2C"/>
<stop offset="1" stop-color="#E8BC4D"/>
</linearGradient>
</defs>
</svg>
